<svg width="27" height="21" viewBox="0 0 27 21" fill="none" xmlns="http://www.w3.org/2000/svg">
<path d="M4.12793 20.0508H22.8721C25.0049 20.0508 26.0918 18.9844 26.0918 16.8721V6.13623C26.0918 4.02393 25.0049 2.96777 22.8721 2.96777H19.9395C19.1294 2.96777 18.8833 2.80371 18.4219 2.29102L17.6016 1.36816C17.0889 0.804199 16.5659 0.496582 15.5098 0.496582H11.4185C10.3623 0.496582 9.83936 0.804199 9.32666 1.36816L8.50635 2.29102C8.04492 2.79346 7.78857 2.96777 6.98877 2.96777H4.12793C1.98486 2.96777 0.908203 4.02393 0.908203 6.13623V16.8721C0.908203 18.9844 1.98486 20.0508 4.12793 20.0508ZM13.5 17.0259C10.3931 17.0259 7.90137 14.5444 7.90137 11.417C7.90137 8.2998 10.3931 5.81836 13.5 5.81836C16.6069 5.81836 19.0884 8.2998 19.0884 11.417C19.0884 14.5444 16.5967 17.0259 13.5 17.0259ZM19.7754 7.64355C19.7754 6.94629 20.3906 6.33105 21.1084 6.33105C21.8159 6.33105 22.4209 6.94629 22.4209 7.64355C22.4209 8.37158 21.8159 8.95605 21.1084 8.96631C20.3906 8.96631 19.7754 8.38184 19.7754 7.64355ZM13.5 15.4673C15.7354 15.4673 17.54 13.6729 17.54 11.417C17.54 9.17139 15.7354 7.3667 13.5 7.3667C11.2646 7.3667 9.44971 9.17139 9.44971 11.417C9.44971 13.6729 11.2749 15.4673 13.5 15.4673Z" fill="white"/>
</svg>
