<svg width="12" height="24" viewBox="0 0 12 24" fill="none" xmlns="http://www.w3.org/2000/svg">
<path d="M0.811523 2.49121H11.1885V1.99902C11.1885 0.707031 10.5527 0.0917969 9.32227 0.0917969H2.67773C1.44727 0.0917969 0.811523 0.707031 0.811523 1.99902V2.49121ZM4.76953 23.0503H7.23047C8.46094 23.0503 9.08643 22.4351 9.08643 21.1431V10.2534C9.08643 9.17676 9.34277 8.39746 9.73242 7.80273L10.3989 6.81836C10.8706 6.09033 11.1885 5.40332 11.1885 4.53174V3.69092H0.811523V4.53174C0.811523 5.40332 1.12939 6.09033 1.60107 6.81836L2.25732 7.80273C2.65723 8.39746 2.90332 9.17676 2.90332 10.2534V21.1431C2.90332 22.4351 3.53906 23.0503 4.76953 23.0503ZM6 15.165C5.15918 15.165 4.61572 14.5498 4.61572 13.6885V10.8789C4.61572 10.0073 5.15918 9.42285 6 9.44336C6.83057 9.45361 7.38428 10.0381 7.38428 10.8789V13.6885C7.38428 14.5498 6.83057 15.165 6 15.165ZM6 14.437C6.45117 14.437 6.84082 14.0576 6.84082 13.5962C6.84082 13.1348 6.45117 12.7451 6 12.7451C5.53857 12.7451 5.14893 13.1348 5.14893 13.5962C5.14893 14.0576 5.53857 14.437 6 14.437Z" fill="white"/>
</svg>
