<svg width="25" height="35" viewBox="0 0 25 35" fill="none" xmlns="http://www.w3.org/2000/svg">
<path d="M4.13281 34.9551H20.8672C23.1348 34.9551 24.2422 33.8301 24.2422 31.3691V18.4668C24.2422 16.252 23.3281 15.1094 21.4473 14.916V10.4863C21.4473 3.85938 17.1055 0.660156 12.5 0.660156C7.89453 0.660156 3.55273 3.85938 3.55273 10.4863V15.0039C1.83008 15.2676 0.757812 16.3926 0.757812 18.4668V31.3691C0.757812 33.8301 1.86523 34.9551 4.13281 34.9551ZM6.38281 10.1172C6.38281 5.70508 9.21289 3.36719 12.5 3.36719C15.7871 3.36719 18.6172 5.70508 18.6172 10.1172V14.8984L6.38281 14.916V10.1172Z" fill="white"/>
</svg>
