<svg width="37" height="38" viewBox="0 0 37 38" fill="none" xmlns="http://www.w3.org/2000/svg">
<path fill-rule="evenodd" clip-rule="evenodd" d="M12.5453 17.1697C13.5826 16.5681 35.8 3.70224 36.31 3.40587C36.8187 3.11024 36.8443 2.20341 36.275 1.87646C35.7052 1.54951 34.6235 0.931215 34.2209 0.694091C33.8112 0.453568 33.0742 0.319862 32.3906 0.716103C32.1068 0.880834 13.1192 11.8676 12.4846 12.2306C11.725 12.6652 10.7848 12.6709 10.0278 12.2298C9.43001 11.8818 0 6.36749 0 6.36749V11.3511C2.44089 12.7815 8.50994 16.3385 9.98084 17.1741C10.8586 17.6729 11.6988 17.6607 12.5453 17.1697Z" fill="white"/>
<path fill-rule="evenodd" clip-rule="evenodd" d="M12.5453 27.127C13.5826 26.5254 35.8 13.6596 36.31 13.3632C36.8187 13.0677 36.8443 12.1607 36.275 11.8338C35.7052 11.5068 34.6235 10.8886 34.2209 10.6514C33.8112 10.4109 33.0742 10.2772 32.3906 10.6734C32.1068 10.8382 13.1192 21.8249 12.4846 22.1879C11.725 22.6226 10.7848 22.6282 10.0278 22.1872C9.43001 21.8391 0 16.3248 0 16.3248V21.3084C2.44089 22.7388 8.50994 26.2959 9.98084 27.1315C10.8586 27.6303 11.6988 27.618 12.5453 27.127Z" fill="white"/>
<path fill-rule="evenodd" clip-rule="evenodd" d="M12.5453 37.0844C13.5826 36.4828 35.8 23.6169 36.31 23.3205C36.8187 23.0251 36.8443 22.1181 36.275 21.7911C35.7052 21.4642 34.6235 20.8459 34.2209 20.6088C33.8112 20.3682 33.0742 20.2345 32.3906 20.6308C32.1068 20.7955 13.1192 31.7823 12.4846 32.1453C11.725 32.5799 10.7848 32.5855 10.0278 32.1445C9.43001 31.7964 0 26.2822 0 26.2822V31.2658C2.44089 32.6962 8.50994 36.2532 9.98084 37.0888C10.8586 37.5876 11.6988 37.5753 12.5453 37.0844Z" fill="white"/>
</svg>
