<svg width="60" height="60" viewBox="0 0 60 60" fill="none" xmlns="http://www.w3.org/2000/svg">
<path d="M42.8334 46.9744C43.5698 48.2498 45.2007 48.6868 46.4762 47.9505C47.7516 47.2141 48.1886 45.5832 47.4522 44.3077L44.7727 39.6667H48.6667C50.1395 39.6667 51.3334 38.4728 51.3334 37C51.3334 35.5273 50.1395 34.3334 48.6667 34.3334H41.6935L33.9996 21.0071C32.7097 22.7751 31.338 25.0192 31.8354 27.9252L42.8334 46.9744Z" fill="white"/>
<path d="M26.9209 19.413L24.1668 14.6428C23.4304 13.3673 23.8674 11.7364 25.1428 11C26.4183 10.2637 28.0492 10.7007 28.7856 11.9761L30.0001 14.0797L31.2146 11.9761C31.9509 10.7007 33.5818 10.2637 34.8573 11C36.1327 11.7364 36.5697 13.3673 35.8334 14.6428L24.465 34.3334H33.1362C34.7221 34.8776 36.0001 36.6636 36.0001 38.3334C36.0001 38.7235 35.9076 39.181 35.7564 39.6667H11.3334C9.86066 39.6667 8.66675 38.4728 8.66675 37C8.66675 35.5273 9.86065 34.3334 11.3334 34.3334H18.3066L26.9209 19.413Z" fill="white"/>
<path d="M16.6667 40.6667C17.7941 40.6667 18.8023 41.2625 19.8929 42.2525L17.1667 46.9744C16.4303 48.2498 14.7994 48.6868 13.524 47.9505C12.2485 47.2141 11.8115 45.5832 12.5479 44.3077L14.4678 40.9823C14.993 40.8217 15.284 40.7428 15.5803 40.7041C15.866 40.6667 16.1566 40.6667 16.6667 40.6667Z" fill="white"/>
</svg>
