<svg width="60" height="60" viewBox="0 0 60 60" fill="none" xmlns="http://www.w3.org/2000/svg">
<path d="M23.459 23.0723C21.8594 23.0723 20.5605 24.043 19.7266 24.043C18.8379 24.043 17.6758 23.127 16.2812 23.127C13.6426 23.127 10.9629 25.3145 10.9629 29.4297C10.9629 32 11.9473 34.707 13.1777 36.457C14.2305 37.9336 15.1465 39.1504 16.4727 39.1504C17.7852 39.1504 18.3594 38.2754 19.9863 38.2754C21.6406 38.2754 22.0098 39.123 23.459 39.123C24.8945 39.123 25.8516 37.8105 26.7539 36.5117C27.7656 35.0215 28.1895 33.5723 28.2031 33.5039C28.1211 33.4766 25.373 32.3555 25.373 29.2109C25.373 26.4902 27.5332 25.2734 27.6562 25.1777C26.2344 23.127 24.0605 23.0723 23.459 23.0723ZM22.707 21.3359C23.3633 20.543 23.8281 19.4629 23.8281 18.3691C23.8281 18.2188 23.8145 18.0684 23.7871 17.9453C22.7207 17.9863 21.4355 18.6562 20.6699 19.5586C20.0684 20.2422 19.5078 21.3359 19.5078 22.4297C19.5078 22.5938 19.5352 22.7578 19.5488 22.8125C19.6172 22.8262 19.7266 22.8398 19.8359 22.8398C20.793 22.8398 21.9961 22.1973 22.707 21.3359Z" fill="#F9F9F9"/>
<path d="M33.2627 21.0776V24.6035H31.0962V27.0249H33.2627V35.5776C33.2627 38.4521 34.438 39.5991 37.4541 39.5991C38.1338 39.5991 38.8135 39.5425 39.1533 39.4575V37.0361C38.9551 37.0786 38.4595 37.1069 38.1479 37.1069C36.9019 37.1069 36.3354 36.5264 36.3354 35.2378V27.0249H39.1675V24.6035H36.3354V21.0776H33.2627ZM54.9038 24.6035H51.7036L47.9653 36.5122H47.9087L44.1704 24.6035H40.9136L46.2803 39.5H49.5654L54.9038 24.6035Z" fill="#F9F9F9"/>
</svg>
