<svg width="60" height="60" viewBox="0 0 60 60" fill="none" xmlns="http://www.w3.org/2000/svg">
<path d="M16.9282 15.7436H18.0903V9.6767H18.1302L20.6082 15.7436H21.5539L24.0319 9.6767H24.0718V15.7436H25.2339V7.52338H23.7642L21.0981 14.0859H21.064L18.4036 7.52338H16.9282V15.7436Z" fill="#FE3C3B"/>
<path d="M30.8872 15.8803C33.2627 15.8803 34.7381 14.2454 34.7381 11.6363V11.6249C34.7381 9.02159 33.257 7.38666 30.8872 7.38666C28.5231 7.38666 27.0363 9.01589 27.0363 11.6249V11.6363C27.0363 14.2511 28.5174 15.8803 30.8872 15.8803ZM30.8872 14.7524C29.3263 14.7524 28.3351 13.5504 28.3351 11.6363V11.6249C28.3351 9.71088 29.332 8.51459 30.8872 8.51459C32.4481 8.51459 33.4336 9.71657 33.4336 11.6249V11.6363C33.4336 13.5333 32.4652 14.7524 30.8872 14.7524Z" fill="#FE3C3B"/>
<path d="M36.5405 15.7436H37.8052V9.65391H37.8394L42.0719 15.7436H43.2454V7.52338H41.9808V13.6017H41.9466L37.7197 7.52338H36.5405V15.7436Z" fill="#FE3C3B"/>
<path d="M21.5314 49.476C26.7996 49.476 30.6642 46.2312 30.6642 41.8379V41.8015C30.6642 38.0645 28.0575 35.6765 24.2293 35.3483V35.2754C27.5106 34.5827 29.8075 32.3588 29.8075 29.114V29.0775C29.8075 25.0853 26.508 22.2963 21.495 22.2963C16.5731 22.2963 13.1825 25.1582 12.7632 29.4421L12.745 29.6244H15.8986L15.9168 29.4421C16.1903 26.7806 18.396 25.14 21.495 25.14C24.7033 25.14 26.508 26.726 26.508 29.4786V29.515C26.508 32.14 24.3205 34.0723 21.1851 34.0723H18.0314V36.8431H21.3309C25.0132 36.8431 27.3283 38.6478 27.3283 41.8744V41.9108C27.3283 44.6999 24.9767 46.6322 21.5314 46.6322C18.0314 46.6322 15.6616 44.8457 15.3882 42.2572L15.37 42.0749H12.2163L12.2345 42.2937C12.5809 46.4499 16.0991 49.476 21.5314 49.476Z" fill="#262626"/>
<path d="M41.3908 49.0385H44.5627V22.7338H41.3543L34.3543 27.765V31.0645L41.3179 26.2155H41.3908V49.0385Z" fill="#262626"/>
</svg>
