<svg width="60" height="60" viewBox="0 0 60 60" fill="none" xmlns="http://www.w3.org/2000/svg">
<path d="M56.2336 30C56.2336 44.4975 44.4811 56.25 29.9836 56.25C15.4862 56.25 3.73364 44.4975 3.73364 30C3.73364 15.5025 15.4862 3.75 29.9836 3.75C44.4811 3.75 56.2336 15.5025 56.2336 30Z" fill="white"/>
<path d="M28.1412 11.5385H28.8321V6.98576H28.1349L26.9359 7.83762V8.50649L28.1254 7.68618H28.1412V11.5385Z" fill="#262626"/>
<path d="M29.9427 11.5385H33.0567V10.9422H30.8892V10.9138L31.9241 9.89786C32.7412 9.09017 32.9842 8.72103 32.9842 8.20045V8.19414C32.9842 7.45901 32.3595 6.91003 31.4855 6.91003C30.5958 6.91003 29.9048 7.50003 29.9048 8.31403V8.33296H30.5737V8.31403C30.58 7.85339 30.9618 7.49372 31.495 7.49372C31.9556 7.49372 32.2837 7.80291 32.2869 8.23515V8.24146C32.2869 8.59483 32.1512 8.83461 31.5455 9.44038L29.9427 11.0526V11.5385Z" fill="#262626"/>
<path d="M30.0153 52.9219C30.9744 52.9219 31.678 52.2688 31.678 51.3602V51.3538C31.678 50.4925 31.0501 49.8584 30.1793 49.8584C29.5609 49.8584 29.1003 50.1802 28.9204 50.5903H28.9047C28.9047 50.5493 28.9047 50.5083 28.9078 50.4673C28.9362 49.5649 29.2549 48.8109 30.0373 48.8109C30.4727 48.8109 30.7693 49.0254 30.8987 49.3662L30.9081 49.3977H31.618L31.6085 49.3599C31.4634 48.6815 30.8545 48.2177 30.0436 48.2177C28.9047 48.2177 28.2263 49.1138 28.2263 50.6313V50.6376C28.2263 52.2751 29.0845 52.9219 30.0153 52.9219ZM29.0435 51.3633V51.3602C29.0435 50.8206 29.4631 50.4326 30.0153 50.4326C30.5705 50.4326 30.9744 50.8238 30.9744 51.3728V51.3791C30.9744 51.9091 30.5453 52.3288 30.0058 52.3288C29.4663 52.3288 29.0435 51.9028 29.0435 51.3633Z" fill="#262626"/>
<path d="M40.4544 14.3056H41.1454V9.75284H40.4481L39.2492 10.6047V11.2736L40.4386 10.4533H40.4544V14.3056Z" fill="#262626"/>
<path d="M18.4487 50.1368H19.1901L21.1684 46.1961V45.584H18.0701V46.1804H20.4711V46.1961L18.4487 50.1368Z" fill="#262626"/>
<path d="M46.4683 21.8654H49.5823V21.2691H47.4148V21.2407L48.4496 20.2248C49.2668 19.4171 49.5097 19.048 49.5097 18.5274V18.5211C49.5097 17.7859 48.885 17.237 48.0111 17.237C47.1214 17.237 46.4304 17.8269 46.4304 18.641V18.6599H47.0993V18.641C47.1056 18.1803 47.4874 17.8206 48.0206 17.8206C48.4812 17.8206 48.8093 18.1298 48.8125 18.5621V18.5684C48.8125 18.9218 48.6768 19.1615 48.071 19.7673L46.4683 21.3795V21.8654Z" fill="#262626"/>
<path d="M12.0393 42.6949C13.0489 42.6949 13.7588 42.1554 13.7588 41.3856V41.3792C13.7588 40.805 13.3486 40.3507 12.7555 40.2213V40.2056C13.2634 40.0604 13.5947 39.6818 13.5947 39.1991V39.1928C13.5947 38.4987 12.9448 37.9907 12.0393 37.9907C11.1338 37.9907 10.487 38.4987 10.487 39.1928V39.1991C10.487 39.6818 10.8183 40.0604 11.3262 40.2056V40.2213C10.7331 40.3507 10.3198 40.805 10.3198 41.3792V41.3856C10.3198 42.1554 11.0328 42.6949 12.0393 42.6949ZM12.0393 39.9689C11.5345 39.9689 11.1874 39.6755 11.1874 39.2622V39.2559C11.1874 38.8394 11.5345 38.5492 12.0393 38.5492C12.5441 38.5492 12.8943 38.8394 12.8943 39.2559V39.2622C12.8943 39.6755 12.5472 39.9689 12.0393 39.9689ZM12.0393 42.1301C11.4587 42.1301 11.0454 41.7989 11.0454 41.3382V41.3319C11.0454 40.8681 11.4556 40.5337 12.0393 40.5337C12.6229 40.5337 13.0331 40.8681 13.0331 41.3319V41.3382C13.0331 41.7989 12.6198 42.1301 12.0393 42.1301Z" fill="#262626"/>
<path d="M50.7403 32.2681C51.7058 32.2681 52.3904 31.7128 52.3904 30.9335V30.9272C52.3904 30.2898 51.9424 29.886 51.2735 29.826V29.8103C51.8288 29.6935 52.2327 29.3149 52.2327 28.7502V28.7439C52.2327 28.0434 51.6395 27.5639 50.734 27.5639C49.8443 27.5639 49.2385 28.0655 49.1691 28.8259L49.1659 28.8574H49.8285L49.8317 28.829C49.8758 28.4063 50.2292 28.1412 50.734 28.1412C51.2483 28.1412 51.5449 28.3968 51.5449 28.8354V28.8417C51.5449 29.2644 51.1915 29.5705 50.6709 29.5705H50.1377V30.1195H50.6898C51.2988 30.1195 51.6711 30.4066 51.6711 30.9208V30.9272C51.6711 31.3689 51.2956 31.6781 50.7403 31.6781C50.1756 31.6781 49.7938 31.3941 49.7496 30.9903L49.7465 30.9556H49.0681L49.0713 30.9966C49.1344 31.738 49.7686 32.2681 50.7403 32.2681Z" fill="#262626"/>
<path d="M9.18296 27.6793C8.22067 27.6793 7.51709 28.3324 7.51709 29.241V29.2473C7.51709 30.1086 8.1481 30.7428 9.01889 30.7428C9.63728 30.7428 10.0979 30.421 10.2778 30.0108H10.2935C10.2935 30.0519 10.2935 30.0929 10.2904 30.1339C10.262 31.0362 9.94332 31.7903 9.16087 31.7903C8.72547 31.7903 8.4289 31.5757 8.29954 31.235L8.28692 31.2034H7.58019L7.58966 31.2413C7.73479 31.9196 8.34371 32.3834 9.15456 32.3834C10.2935 32.3834 10.9719 31.4874 10.9719 29.9698V29.9635C10.9719 28.326 10.1137 27.6793 9.18296 27.6793ZM9.1798 30.1686C8.62767 30.1686 8.22067 29.7774 8.22067 29.2284V29.2221C8.22067 28.692 8.65291 28.2724 9.18927 28.2724C9.73193 28.2724 10.1547 28.6983 10.1547 29.2379V29.241C10.1547 29.7805 9.73509 30.1686 9.1798 30.1686Z" fill="#262626"/>
<path d="M48.2117 42.6192H48.89V41.7137H49.5179V41.1205H48.89V38.0664H47.8678L45.9337 41.0984V41.7137H48.2117V42.6192ZM46.59 41.13V41.1111L48.1991 38.6249H48.218V41.13H46.59Z" fill="#262626"/>
<path d="M10.2246 21.8654H10.9156V17.3127H10.2183L9.0194 18.1645V18.8334L10.2089 18.0131H10.2246V21.8654Z" fill="#262626"/>
<path d="M13.6889 21.9411C14.7742 21.9411 15.4273 21.0356 15.4273 19.5906V19.5843C15.4273 18.1393 14.7742 17.237 13.6889 17.237C12.6004 17.237 11.9504 18.1393 11.9504 19.5843V19.5906C11.9504 21.0356 12.6004 21.9411 13.6889 21.9411ZM13.6889 21.3511C13.0389 21.3511 12.6635 20.6823 12.6635 19.5906V19.5843C12.6635 18.4927 13.0389 17.8301 13.6889 17.8301C14.3357 17.8301 14.7143 18.4927 14.7143 19.5843V19.5906C14.7143 20.6823 14.3357 21.3511 13.6889 21.3511Z" fill="#262626"/>
<path d="M40.4702 50.1548C41.4514 50.1548 42.1424 49.5143 42.1424 48.5899V48.5836C42.1424 47.7128 41.5145 47.0849 40.6437 47.0849C40.1957 47.0849 39.8171 47.2585 39.612 47.5645H39.5962L39.7351 46.1227H41.8773V45.5264H39.164L38.94 48.1514H39.5584C39.6183 48.0504 39.6909 47.9621 39.7761 47.8895C39.9591 47.7254 40.202 47.6434 40.4828 47.6434C41.0476 47.6434 41.4483 48.0378 41.4514 48.5962V48.6025C41.4514 49.1673 41.0507 49.5648 40.4765 49.5648C39.9685 49.5648 39.5962 49.2493 39.5363 48.8392L39.5331 48.8139H38.858L38.8611 48.8518C38.9242 49.6027 39.5584 50.1548 40.4702 50.1548Z" fill="#262626"/>
<path d="M17.9933 14.3633H18.6843V9.81053H17.987L16.7881 10.6624V11.3313L17.9775 10.5109H17.9933V14.3633Z" fill="#262626"/>
<path d="M20.9464 14.3633H21.6374V9.81053H20.9401L19.7412 10.6624V11.3313L20.9307 10.5109H20.9464V14.3633Z" fill="#262626"/>
<path fill-rule="evenodd" clip-rule="evenodd" d="M29.9837 30.4616C30.2386 30.4616 30.4452 30.2549 30.4452 30C30.4452 29.7451 30.2386 29.5385 29.9837 29.5385C29.7288 29.5385 29.5222 29.7451 29.5222 30C29.5222 30.2549 29.7288 30.4616 29.9837 30.4616ZM29.9837 31.3846C30.7484 31.3846 31.3683 30.7647 31.3683 30C31.3683 29.2353 30.7484 28.6154 29.9837 28.6154C29.219 28.6154 28.5991 29.2353 28.5991 30C28.5991 30.7647 29.219 31.3846 29.9837 31.3846Z" fill="#262626"/>
<path d="M45.8631 14.5276C46.2419 14.1865 46.8256 14.2171 47.1667 14.5959C47.5078 14.9748 47.4773 15.5585 47.0984 15.8996L34.0648 27.6351C33.6859 27.9762 33.1023 27.9456 32.7611 27.5668C32.42 27.1879 32.4506 26.6043 32.8295 26.2631L45.8631 14.5276Z" fill="#262626"/>
<path d="M44.114 16.7236C44.3034 16.553 44.5952 16.5683 44.7658 16.7577C44.9363 16.9472 44.921 17.239 44.7316 17.4096L31.355 29.4539C31.1656 29.6245 30.8738 29.6092 30.7032 29.4198C30.5326 29.2303 30.5479 28.9385 30.7374 28.7679L44.114 16.7236Z" fill="#262626"/>
<path d="M19.6663 22.9774C19.2248 22.7225 18.6603 22.8738 18.4054 23.3153C18.1504 23.7568 18.3017 24.3213 18.7432 24.5762L26.8812 29.2747C27.3227 29.5296 27.8872 29.3783 28.1421 28.9368C28.397 28.4953 28.2458 27.9308 27.8043 27.6759L19.6663 22.9774Z" fill="#262626"/>
<path d="M20.6586 24.0832C20.4379 23.9558 20.1556 24.0314 20.0281 24.2522C19.9007 24.4729 19.9763 24.7552 20.1971 24.8827L28.5909 29.7288C28.8116 29.8563 29.0939 29.7806 29.2213 29.5599C29.3488 29.3391 29.2732 29.0568 29.0524 28.9294L20.6586 24.0832Z" fill="#262626"/>
<path fill-rule="evenodd" clip-rule="evenodd" d="M32.013 26.4849C32.2337 26.6123 32.3093 26.8946 32.1819 27.1154L30.783 29.5383C30.8616 29.6741 30.9066 29.8318 30.9066 30C30.9066 30.5098 30.4933 30.9231 29.9835 30.9231L18.614 50.6156C18.4866 50.8364 18.2043 50.912 17.9835 50.7846C17.7628 50.6571 17.6871 50.3748 17.8146 50.1541L29.184 30.4617C29.1054 30.3259 29.0604 30.1682 29.0604 30C29.0604 29.4902 29.4737 29.0769 29.9835 29.0769L31.3825 26.6538C31.5099 26.4331 31.7922 26.3574 32.013 26.4849ZM29.9835 30.4615C30.2384 30.4615 30.4451 30.2549 30.4451 30C30.4451 29.7451 30.2384 29.5384 29.9835 29.5384C29.7286 29.5384 29.522 29.7451 29.522 30C29.522 30.2549 29.7286 30.4615 29.9835 30.4615Z" fill="#EF8732"/>
</svg>
