<svg width="40" height="39" viewBox="0 0 40 39" fill="none" xmlns="http://www.w3.org/2000/svg">
<path d="M1.38839 10.9766C-1.08734 4.31772 3.18081 1.36442 6.2643 0.506216C6.78727 0.360661 7.32837 0.596325 7.63877 1.04168L13.2506 9.09346C13.6151 9.61646 13.5756 10.3149 13.1993 10.8295C11.9159 12.5848 11.4526 14.0743 11.2864 15.2337C11.1488 16.1933 11.4911 17.1466 12.0672 17.9262C16.4792 23.8965 21.2522 28.3862 23.5954 28.4961C25.3127 28.5767 27.4094 27.2458 28.5529 26.4054C29.0635 26.0302 29.7618 25.986 30.2891 26.3375L38.5019 31.8127C38.9528 32.1133 39.1979 32.6519 39.0827 33.1815C37.5839 40.0744 31.1035 39.342 27.9314 38.0469C13.0485 31.1328 4.78683 20.1172 1.38839 10.9766Z" fill="#FEFEFE"/>
</svg>
