<svg width="44" height="26" viewBox="0 0 44 26" fill="none" xmlns="http://www.w3.org/2000/svg">
<path d="M0.90625 5.96875C0.90625 2.73271 3.52958 0.109375 6.76562 0.109375H24.3438C27.5798 0.109375 30.2031 2.73271 30.2031 5.96875V20.0312C30.2031 23.2673 27.5798 25.8906 24.3438 25.8906H6.76562C3.52958 25.8906 0.90625 23.2673 0.90625 20.0312V5.96875Z" fill="white"/>
<path d="M31.6094 9.23863C31.6094 8.65487 31.8813 8.10442 32.3448 7.74964L40.0792 1.83048C41.3129 0.88634 43.0938 1.76597 43.0938 3.31947V22.6805C43.0938 24.234 41.3129 25.1137 40.0792 24.1695L32.3448 18.2504C31.8813 17.8956 31.6094 17.3451 31.6094 16.7614V9.23863Z" fill="white"/>
</svg>
