<svg width="60" height="60" viewBox="0 0 60 60" fill="none" xmlns="http://www.w3.org/2000/svg">
<path fill-rule="evenodd" clip-rule="evenodd" d="M42.5001 16.95V14C42.5008 13.735 42.6064 13.4811 42.7938 13.2938C42.9812 13.1064 43.2351 13.0008 43.5001 13H46.0001C46.265 13.0008 46.5189 13.1064 46.7063 13.2938C46.8937 13.4811 46.9993 13.735 47.0001 14V20.55L51.9001 24.45C52.0219 24.5523 52.1001 24.6972 52.1187 24.8552C52.1373 25.0132 52.0948 25.1723 52.0001 25.3C51.9485 25.3726 51.8813 25.4328 51.8034 25.476C51.7255 25.5193 51.639 25.5446 51.5501 25.55H47.5001V45.55C47.4977 46.345 47.1809 47.1067 46.6188 47.6688C46.0567 48.2309 45.295 48.5477 44.5001 48.55H15.5001C14.7051 48.5477 13.9434 48.2309 13.3813 47.6688C12.8192 47.1067 12.5024 46.345 12.5001 45.55V25.55H8.45006C8.37042 25.5532 8.291 25.5398 8.21678 25.5107C8.14257 25.4817 8.07516 25.4376 8.01881 25.3813C7.96245 25.3249 7.91837 25.2575 7.88933 25.1833C7.86029 25.1091 7.84692 25.0296 7.85006 24.95C7.84959 24.8599 7.87234 24.7711 7.91613 24.6923C7.95992 24.6135 8.02326 24.5472 8.10006 24.5L29.4001 7.55001C29.5759 7.40458 29.7969 7.32501 30.0251 7.32501C30.2532 7.32501 30.4742 7.40458 30.6501 7.55001L42.5001 16.95Z" fill="#FA9013"/>
<path fill-rule="evenodd" clip-rule="evenodd" d="M30.6001 11.7L44.3001 22.35C44.4144 22.4536 44.4858 22.5963 44.5001 22.75V44.5C44.4993 44.7649 44.3937 45.0189 44.2063 45.2062C44.019 45.3936 43.7651 45.4992 43.5001 45.5H16.5001C16.2351 45.4992 15.9812 45.3936 15.7938 45.2062C15.6065 45.0188 15.5009 44.7649 15.5001 44.5V22.95C15.4961 22.8717 15.5125 22.7938 15.5475 22.7237C15.5826 22.6536 15.6351 22.5938 15.7001 22.55L29.4001 11.7C29.5663 11.5549 29.7795 11.475 30.0001 11.475C30.2207 11.475 30.4339 11.5549 30.6001 11.7Z" fill="#FFAE28"/>
<path fill-rule="evenodd" clip-rule="evenodd" d="M30.6001 16.35L40.8001 23.85C40.8651 23.8938 40.9176 23.9536 40.9527 24.0237C40.9877 24.0938 41.004 24.1717 41.0001 24.25V41C40.9993 41.2649 40.8937 41.5189 40.7063 41.7062C40.519 41.8936 40.2651 41.9992 40.0001 42H20.0001C19.7351 41.9992 19.4812 41.8936 19.2938 41.7062C19.1065 41.5188 19.0009 41.2649 19.0001 41V24.75C18.9961 24.6717 19.0125 24.5938 19.0475 24.5237C19.0826 24.4536 19.1351 24.3938 19.2001 24.35L29.4001 16.35C29.5764 16.2279 29.7857 16.1625 30.0001 16.1625C30.2145 16.1625 30.4238 16.2279 30.6001 16.35Z" fill="#FFC148"/>
<path fill-rule="evenodd" clip-rule="evenodd" d="M30.6001 20.75L37.3001 25.8C37.3651 25.8438 37.4176 25.9036 37.4527 25.9737C37.4877 26.0438 37.504 26.1218 37.5001 26.2V37.5C37.4993 37.765 37.3937 38.0189 37.2063 38.2063C37.019 38.3936 36.7651 38.4992 36.5001 38.5H23.5001C23.2351 38.4992 22.9812 38.3936 22.7938 38.2063C22.6065 38.0189 22.5009 37.765 22.5001 37.5V26.55C22.4961 26.4718 22.5125 26.3938 22.5475 26.3237C22.5826 26.2536 22.6351 26.1938 22.7001 26.15L29.4001 20.8C29.5661 20.6594 29.7742 20.5781 29.9915 20.5691C30.2088 20.56 30.423 20.6237 30.6001 20.75Z" fill="#FFD361"/>
<path fill-rule="evenodd" clip-rule="evenodd" d="M30.3499 25.1L33.8499 28.35C33.9407 28.4446 33.994 28.569 33.9999 28.7V34.5C34.0039 34.5667 33.9937 34.6335 33.97 34.696C33.9463 34.7585 33.9096 34.8152 33.8624 34.8625C33.8151 34.9097 33.7584 34.9464 33.6959 34.9701C33.6334 34.9938 33.5666 35.004 33.4999 35H26.4999C26.4332 35.004 26.3664 34.9938 26.3039 34.9701C26.2414 34.9464 26.1846 34.9097 26.1374 34.8625C26.0901 34.8152 26.0534 34.7585 26.0297 34.696C26.006 34.6335 25.9959 34.5667 25.9999 34.5V28.7C25.998 28.6343 26.0105 28.5689 26.0364 28.5085C26.0623 28.4481 26.101 28.394 26.1499 28.35L29.6499 25.1C29.7519 25.0268 29.8743 24.9875 29.9999 24.9875C30.1254 24.9875 30.2478 25.0268 30.3499 25.1Z" fill="#FFE780"/>
</svg>
