<svg width="44" height="28" viewBox="0 0 44 28" fill="none" xmlns="http://www.w3.org/2000/svg">
<path fill-rule="evenodd" clip-rule="evenodd" d="M17.034 17.6598L14.3588 14.9845L2.10518 27.2381C2.16491 27.274 2.22602 27.3079 2.28842 27.3397C2.93015 27.6667 3.77023 27.6667 5.4504 27.6667H38.5171C40.1972 27.6667 41.0373 27.6667 41.679 27.3397C41.7414 27.3079 41.8026 27.274 41.8623 27.2381L29.6088 14.9845L26.9336 17.6598C26.0891 18.5042 25.0826 19.0878 24.0141 19.4105C23.3531 19.6102 22.6684 19.71 21.9838 19.71C20.1923 19.71 18.4008 19.0266 17.034 17.6598ZM42.8885 26.2119C42.9244 26.1522 42.9583 26.0911 42.9901 26.0287C43.3171 25.3869 43.3171 24.5469 43.3171 22.8667V5.13337C43.3171 3.45322 43.3171 2.61314 42.9901 1.9714C42.9491 1.8909 42.9046 1.81254 42.8568 1.73652L30.635 13.9584L42.8885 26.2119ZM41.9139 0.7937C41.8379 0.745893 41.7595 0.701381 41.679 0.660354C41.0373 0.333374 40.1972 0.333374 38.5171 0.333374H5.45039C3.77023 0.333374 2.93015 0.333374 2.28842 0.660354C2.20793 0.701368 2.12958 0.745865 2.05357 0.793654L17.9769 16.717C18.7923 17.5324 19.7944 18.0474 20.8457 18.2619C21.5775 18.4112 22.3331 18.4149 23.0661 18.273C24.1376 18.0655 25.1608 17.5468 25.9907 16.717L41.9139 0.7937ZM1.11072 1.73648L13.3326 13.9584L1.07899 26.212C1.04308 26.1522 1.00918 26.0911 0.977371 26.0287C0.650391 25.3869 0.650391 24.5469 0.650391 22.8667V5.13338C0.650391 3.45322 0.650391 2.61314 0.977371 1.9714C1.0184 1.89088 1.06291 1.81251 1.11072 1.73648Z" fill="url(#paint0_linear_91_243)"/>
<defs>
<linearGradient id="paint0_linear_91_243" x1="21.9837" y1="0.333374" x2="21.9837" y2="27.6667" gradientUnits="userSpaceOnUse">
<stop stop-color="#F7F7F7"/>
<stop offset="1" stop-color="#F9F9F9"/>
</linearGradient>
</defs>
</svg>
