<svg width="32" height="42" viewBox="0 0 32 42" fill="none" xmlns="http://www.w3.org/2000/svg">
<path d="M10.93 5.00456C10.0004 5.19596 9.33333 6.01436 9.33333 6.96348L9.33333 29C9.33333 29.0461 9.33369 29.0939 9.33405 29.1433C9.34162 30.1655 9.35401 31.841 6.33333 32C3.16923 32.1665 0.00511847 34.3298 6.20329e-06 36.9935C-9.19434e-07 36.9972 0.0026824 37.0004 0.00634293 37.001C0.0102316 37.0017 0.0129757 37.0052 0.0126675 37.0091C0.00426861 37.1162 0 37.2243 0 37.3333C0 39.9106 2.38781 42 5.33333 42C6.23696 42 7.0881 41.8033 7.83392 41.4563C9.77942 40.827 11.6667 39.2047 11.6667 35.1666V15.3347C11.6667 14.8601 12.0002 14.4509 12.465 14.3552L28.465 11.0611C29.0854 10.9334 29.6667 11.4072 29.6667 12.0405V24.8333C29.6667 24.8545 29.6667 24.876 29.6669 24.8979C29.667 24.9223 29.6672 24.9471 29.6674 24.9722L29.6674 24.9767C29.675 25.9988 29.6873 27.6743 26.6667 27.8333C23.5026 27.9998 20.3385 30.1631 20.3333 32.8268C20.3333 32.8305 20.336 32.8337 20.3397 32.8344C20.3436 32.835 20.3463 32.8385 20.346 32.8425C20.3376 32.9496 20.3333 33.0577 20.3333 33.1666C20.3333 35.744 22.7212 37.8333 25.6667 37.8333C26.5703 37.8333 27.4215 37.6367 28.1673 37.2896C30.1128 36.6604 32 35.038 32 31L32 2.30244C32 1.45797 31.2249 0.826205 30.3978 0.996495L10.93 5.00456Z" fill="white"/>
</svg>
