<svg width="60" height="60" viewBox="0 0 60 60" fill="none" xmlns="http://www.w3.org/2000/svg">
<mask id="mask0_91_46" style="mask-type:alpha" maskUnits="userSpaceOnUse" x="0" y="0" width="60" height="60">
<path d="M0 22.1538C0 14.3993 0 10.522 1.50914 7.56013C2.83662 4.95481 4.95481 2.83662 7.56013 1.50914C10.522 0 14.3993 0 22.1538 0H37.8462C45.6007 0 49.478 0 52.4399 1.50914C55.0452 2.83662 57.1634 4.95481 58.4909 7.56013C60 10.522 60 14.3993 60 22.1538V37.8462C60 45.6007 60 49.478 58.4909 52.4399C57.1634 55.0452 55.0452 57.1634 52.4399 58.4909C49.478 60 45.6007 60 37.8462 60H22.1538C14.3993 60 10.522 60 7.56013 58.4909C4.95481 57.1634 2.83662 55.0452 1.50914 52.4399C0 49.478 0 45.6007 0 37.8462V22.1538Z" fill="white"/>
</mask>
<g mask="url(#mask0_91_46)">
<rect y="15" width="60" height="3.33333" fill="url(#paint0_linear_91_46)"/>
</g>
<mask id="mask1_91_46" style="mask-type:alpha" maskUnits="userSpaceOnUse" x="0" y="0" width="60" height="60">
<path d="M0 22.1538C0 14.3993 0 10.522 1.50914 7.56013C2.83662 4.95481 4.95481 2.83662 7.56013 1.50914C10.522 0 14.3993 0 22.1538 0H37.8462C45.6007 0 49.478 0 52.4399 1.50914C55.0452 2.83662 57.1634 4.95481 58.4909 7.56013C60 10.522 60 14.3993 60 22.1538V37.8462C60 45.6007 60 49.478 58.4909 52.4399C57.1634 55.0452 55.0452 57.1634 52.4399 58.4909C49.478 60 45.6007 60 37.8462 60H22.1538C14.3993 60 10.522 60 7.56013 58.4909C4.95481 57.1634 2.83662 55.0452 1.50914 52.4399C0 49.478 0 45.6007 0 37.8462V22.1538Z" fill="white"/>
</mask>
<g mask="url(#mask1_91_46)">
<rect width="60" height="15" fill="url(#paint1_linear_91_46)"/>
</g>
<path d="M0.416667 18.8334C0.262451 18.8334 0.119141 18.7869 0 18.7071V17.4597C0.119141 17.3799 0.262451 17.3334 0.416667 17.3334C0.830892 17.3334 1.16667 17.6692 1.16667 18.0834C1.16667 18.4976 0.830892 18.8334 0.416667 18.8334Z" fill="#C7C6CA"/>
<path d="M3.23999 18.8334C3.65422 18.8334 3.98999 18.4976 3.98999 18.0834C3.98999 17.6692 3.65422 17.3334 3.23999 17.3334C2.82576 17.3334 2.48999 17.6692 2.48999 18.0834C2.48999 18.4976 2.82576 18.8334 3.23999 18.8334Z" fill="#C7C6CA"/>
<path d="M6.81331 18.0834C6.81331 18.4976 6.47754 18.8334 6.06331 18.8334C5.64909 18.8334 5.31331 18.4976 5.31331 18.0834C5.31331 17.6692 5.64909 17.3334 6.06331 17.3334C6.47754 17.3334 6.81331 17.6692 6.81331 18.0834Z" fill="#C7C6CA"/>
<path d="M8.88664 18.8334C9.30086 18.8334 9.63664 18.4976 9.63664 18.0834C9.63664 17.6692 9.30086 17.3334 8.88664 17.3334C8.47241 17.3334 8.13664 17.6692 8.13664 18.0834C8.13664 18.4976 8.47241 18.8334 8.88664 18.8334Z" fill="#C7C6CA"/>
<path d="M12.46 18.0834C12.46 18.4976 12.1242 18.8334 11.71 18.8334C11.2957 18.8334 10.96 18.4976 10.96 18.0834C10.96 17.6692 11.2957 17.3334 11.71 17.3334C12.1242 17.3334 12.46 17.6692 12.46 18.0834Z" fill="#C7C6CA"/>
<path d="M14.5334 18.8334C14.9476 18.8334 15.2834 18.4976 15.2834 18.0834C15.2834 17.6692 14.9476 17.3334 14.5334 17.3334C14.1191 17.3334 13.7834 17.6692 13.7834 18.0834C13.7834 18.4976 14.1191 18.8334 14.5334 18.8334Z" fill="#C7C6CA"/>
<path d="M18.1068 18.0834C18.1068 18.4976 17.771 18.8334 17.3568 18.8334C16.9425 18.8334 16.6068 18.4976 16.6068 18.0834C16.6068 17.6692 16.9425 17.3334 17.3568 17.3334C17.771 17.3334 18.1068 17.6692 18.1068 18.0834Z" fill="#C7C6CA"/>
<path d="M20.1802 18.8334C20.5944 18.8334 20.9302 18.4976 20.9302 18.0834C20.9302 17.6692 20.5944 17.3334 20.1802 17.3334C19.766 17.3334 19.4302 17.6692 19.4302 18.0834C19.4302 18.4976 19.766 18.8334 20.1802 18.8334Z" fill="#C7C6CA"/>
<path d="M23.7536 18.0834C23.7536 18.4976 23.4178 18.8334 23.0036 18.8334C22.5894 18.8334 22.2536 18.4976 22.2536 18.0834C22.2536 17.6692 22.5894 17.3334 23.0036 17.3334C23.4178 17.3334 23.7536 17.6692 23.7536 18.0834Z" fill="#C7C6CA"/>
<path d="M25.827 18.8334C26.2412 18.8334 26.577 18.4976 26.577 18.0834C26.577 17.6692 26.2412 17.3334 25.827 17.3334C25.4128 17.3334 25.077 17.6692 25.077 18.0834C25.077 18.4976 25.4128 18.8334 25.827 18.8334Z" fill="#C7C6CA"/>
<path d="M29.4004 18.0834C29.4004 18.4976 29.0646 18.8334 28.6504 18.8334C28.2362 18.8334 27.9004 18.4976 27.9004 18.0834C27.9004 17.6692 28.2362 17.3334 28.6504 17.3334C29.0646 17.3334 29.4004 17.6692 29.4004 18.0834Z" fill="#C7C6CA"/>
<path d="M31.4738 18.8334C31.888 18.8334 32.2238 18.4976 32.2238 18.0834C32.2238 17.6692 31.888 17.3334 31.4738 17.3334C31.0596 17.3334 30.7238 17.6692 30.7238 18.0834C30.7238 18.4976 31.0596 18.8334 31.4738 18.8334Z" fill="#C7C6CA"/>
<path d="M35.0472 18.0834C35.0472 18.4976 34.7114 18.8334 34.2972 18.8334C33.883 18.8334 33.5472 18.4976 33.5472 18.0834C33.5472 17.6692 33.883 17.3334 34.2972 17.3334C34.7114 17.3334 35.0472 17.6692 35.0472 18.0834Z" fill="#C7C6CA"/>
<path d="M37.1206 18.8334C37.5348 18.8334 37.8706 18.4976 37.8706 18.0834C37.8706 17.6692 37.5348 17.3334 37.1206 17.3334C36.7064 17.3334 36.3706 17.6692 36.3706 18.0834C36.3706 18.4976 36.7064 18.8334 37.1206 18.8334Z" fill="#C7C6CA"/>
<path d="M40.694 18.0834C40.694 18.4976 40.3582 18.8334 39.944 18.8334C39.5298 18.8334 39.194 18.4976 39.194 18.0834C39.194 17.6692 39.5298 17.3334 39.944 17.3334C40.3582 17.3334 40.694 17.6692 40.694 18.0834Z" fill="#C7C6CA"/>
<path d="M42.7674 18.8334C43.1816 18.8334 43.5174 18.4976 43.5174 18.0834C43.5174 17.6692 43.1816 17.3334 42.7674 17.3334C42.3532 17.3334 42.0174 17.6692 42.0174 18.0834C42.0174 18.4976 42.3532 18.8334 42.7674 18.8334Z" fill="#C7C6CA"/>
<path d="M46.3408 18.0834C46.3408 18.4976 46.005 18.8334 45.5908 18.8334C45.1766 18.8334 44.8408 18.4976 44.8408 18.0834C44.8408 17.6692 45.1766 17.3334 45.5908 17.3334C46.005 17.3334 46.3408 17.6692 46.3408 18.0834Z" fill="#C7C6CA"/>
<path d="M48.4142 18.8334C48.8284 18.8334 49.1642 18.4976 49.1642 18.0834C49.1642 17.6692 48.8284 17.3334 48.4142 17.3334C48 17.3334 47.6642 17.6692 47.6642 18.0834C47.6642 18.4976 48 18.8334 48.4142 18.8334Z" fill="#C7C6CA"/>
<path d="M51.9876 18.0834C51.9876 18.4976 51.6519 18.8334 51.2376 18.8334C50.8234 18.8334 50.4876 18.4976 50.4876 18.0834C50.4876 17.6692 50.8234 17.3334 51.2376 17.3334C51.6519 17.3334 51.9876 17.6692 51.9876 18.0834Z" fill="#C7C6CA"/>
<path d="M54.061 18.8334C54.4753 18.8334 54.811 18.4976 54.811 18.0834C54.811 17.6692 54.4753 17.3334 54.061 17.3334C53.6468 17.3334 53.311 17.6692 53.311 18.0834C53.311 18.4976 53.6468 18.8334 54.061 18.8334Z" fill="#C7C6CA"/>
<path d="M57.6344 18.0834C57.6344 18.4976 57.2987 18.8334 56.8844 18.8334C56.4702 18.8334 56.1344 18.4976 56.1344 18.0834C56.1344 17.6692 56.4702 17.3334 56.8844 17.3334C57.2987 17.3334 57.6344 17.6692 57.6344 18.0834Z" fill="#C7C6CA"/>
<path d="M60 17.3924V18.7743C59.9102 18.8124 59.8115 18.8334 59.7078 18.8334C59.2936 18.8334 58.9578 18.4976 58.9578 18.0834C58.9578 17.6692 59.2936 17.3334 59.7078 17.3334C59.8115 17.3334 59.9102 17.3544 60 17.3924Z" fill="#C7C6CA"/>
<path d="M60 29.6666H0V30.6666H60V29.6666Z" fill="#C8C7CB"/>
<path d="M60 44.6666H0V45.6666H60V44.6666Z" fill="#C8C7CB"/>
<defs>
<linearGradient id="paint0_linear_91_46" x1="30" y1="15" x2="30" y2="18.3333" gradientUnits="userSpaceOnUse">
<stop offset="0.0416667" stop-color="#9C9A9B"/>
<stop offset="0.447917" stop-color="#D7D7D7"/>
<stop offset="0.875" stop-color="white"/>
</linearGradient>
<linearGradient id="paint1_linear_91_46" x1="30" y1="0" x2="30" y2="15" gradientUnits="userSpaceOnUse">
<stop stop-color="#FFDD5F"/>
<stop offset="1" stop-color="#FDCB00"/>
</linearGradient>
</defs>
</svg>
