<svg width="60" height="79" viewBox="0 0 60 79" fill="none" xmlns="http://www.w3.org/2000/svg">
<path fill-rule="evenodd" clip-rule="evenodd" d="M11.8395 22.0738H20.3678C22.4948 22.08 24.5328 22.9277 26.0367 24.4316C27.5407 25.9356 28.3883 27.9736 28.3946 30.1005C28.3883 32.2274 27.5407 34.2654 26.0367 35.7694C24.5328 37.2733 22.4948 38.121 20.3678 38.1272H11.8395C9.71256 38.121 7.67455 37.2733 6.17059 35.7694C4.66664 34.2654 3.81897 32.2274 3.81274 30.1005C3.81897 27.9736 4.66663 25.9356 6.17059 24.4316C7.67455 22.9277 9.71256 22.08 11.8395 22.0738Z" fill="url(#paint0_linear_53_2294)" fill-opacity="0.25"/>
<path fill-rule="evenodd" clip-rule="evenodd" d="M39.4313 22.0738H47.9596C50.0865 22.08 52.1246 22.9277 53.6285 24.4316C55.1325 25.9356 55.9801 27.9736 55.9863 30.1005C55.9801 32.2274 55.1325 34.2654 53.6285 35.7694C52.1246 37.2733 50.0865 38.121 47.9596 38.1272H39.4313C37.3044 38.121 35.2663 37.2733 33.7624 35.7694C32.2584 34.2654 31.4108 32.2274 31.4045 30.1005C31.4108 27.9736 32.2584 25.9356 33.7624 24.4316C35.2663 22.9277 37.3044 22.08 39.4313 22.0738Z" fill="url(#paint1_linear_53_2294)" fill-opacity="0.25"/>
<path fill-rule="evenodd" clip-rule="evenodd" d="M21.8728 20.5687V12.0404C21.879 9.91349 22.7267 7.87547 24.2306 6.37152C25.7346 4.86756 27.7726 4.0199 29.8995 4.01367C32.0264 4.01989 34.0644 4.86755 35.5684 6.37151C37.0723 7.87547 37.92 9.91348 37.9262 12.0404V20.5688C37.92 22.6957 37.0723 24.7337 35.5684 26.2377C34.0644 27.7416 32.0264 28.5893 29.8995 28.5955C27.7726 28.5893 25.7346 27.7416 24.2306 26.2376C22.7267 24.7337 21.879 22.6956 21.8728 20.5687Z" fill="url(#paint2_linear_53_2294)" fill-opacity="0.25"/>
<path fill-rule="evenodd" clip-rule="evenodd" d="M37.9262 39.6322V48.1606C37.92 50.2875 37.0723 52.3255 35.5684 53.8294C34.0644 55.3334 32.0264 56.1811 29.8995 56.1873C27.7726 56.1811 25.7346 55.3334 24.2306 53.8294C22.7267 52.3255 21.879 50.2875 21.8728 48.1606V39.6322C21.879 37.5053 22.7267 35.4673 24.2306 33.9633C25.7346 32.4594 27.7726 31.6117 29.8995 31.6055C32.0264 31.6117 34.0644 32.4594 35.5684 33.9633C37.0723 35.4673 37.92 37.5053 37.9262 39.6322Z" fill="url(#paint3_linear_53_2294)" fill-opacity="0.25"/>
<path fill-rule="evenodd" clip-rule="evenodd" d="M17.4583 28.9968L11.4382 22.9767C9.94384 21.4685 9.10547 19.4311 9.10547 17.3079C9.10547 15.1847 9.94384 13.1473 11.4382 11.639C12.9465 10.1446 14.9839 9.30627 17.1071 9.30627C19.2303 9.30627 21.2677 10.1446 22.776 11.639L28.796 17.6591C30.2904 19.1673 31.1288 21.2047 31.1288 23.3279C31.1288 25.4511 30.2904 27.4885 28.796 28.9968C28.0613 29.7584 27.1807 30.3641 26.2067 30.7778C25.2327 31.1916 24.1854 31.4048 23.1271 31.4048C22.0689 31.4048 21.0216 31.1916 20.0476 30.7778C19.0736 30.3641 18.193 29.7584 17.4583 28.9968Z" fill="url(#paint4_linear_53_2294)" fill-opacity="0.25"/>
<path fill-rule="evenodd" clip-rule="evenodd" d="M42.3409 31.2041L48.361 37.2242C49.8554 38.7325 50.6937 40.7698 50.6937 42.893C50.6937 45.0163 49.8554 47.0536 48.361 48.5619C46.8527 50.0563 44.8153 50.8947 42.6921 50.8947C40.5688 50.8947 38.5315 50.0563 37.0232 48.5619L31.0032 42.5419C29.5088 41.0336 28.6704 38.9962 28.6704 36.873C28.6704 34.7498 29.5088 32.7124 31.0032 31.2041C31.7378 30.4425 32.6185 29.8367 33.5925 29.423C34.5665 29.0093 35.6138 28.796 36.672 28.796C37.7303 28.796 38.7776 29.0093 39.7516 29.423C40.7256 29.8367 41.6062 30.4425 42.3409 31.2041Z" fill="url(#paint5_linear_53_2294)" fill-opacity="0.25"/>
<path fill-rule="evenodd" clip-rule="evenodd" d="M31.0032 17.6591L37.0232 11.639C38.5315 10.1446 40.5689 9.30627 42.6921 9.30627C44.8154 9.30627 46.8527 10.1446 48.361 11.639C49.8554 13.1473 50.6938 15.1846 50.6938 17.3079C50.6938 19.4311 49.8554 21.4684 48.361 22.9767L42.341 28.9968C40.8327 30.4912 38.7953 31.3296 36.6721 31.3296C34.5488 31.3296 32.5115 30.4912 31.0032 28.9968C30.2416 28.2621 29.6359 27.3815 29.2222 26.4075C28.8084 25.4335 28.5952 24.3861 28.5952 23.3279C28.5952 22.2697 28.8084 21.2224 29.2222 20.2484C29.6359 19.2744 30.2416 18.3938 31.0032 17.6591Z" fill="url(#paint6_linear_53_2294)" fill-opacity="0.25"/>
<path fill-rule="evenodd" clip-rule="evenodd" d="M28.796 42.5419L22.776 48.5619C21.2677 50.0563 19.2303 50.8947 17.1071 50.8947C14.9839 50.8947 12.9465 50.0563 11.4382 48.5619C9.94384 47.0536 9.10547 45.0163 9.10547 42.8931C9.10547 40.7698 9.94384 38.7325 11.4382 37.2242L17.4583 31.2042C18.9666 29.7098 21.0039 28.8714 23.1271 28.8714C25.2504 28.8714 27.2877 29.7098 28.796 31.2042C29.5576 31.9389 30.1634 32.8195 30.5771 33.7935C30.9909 34.7674 31.2041 35.8148 31.2041 36.873C31.2041 37.9312 30.9909 38.9786 30.5771 39.9526C30.1634 40.9266 29.5576 41.8072 28.796 42.5419Z" fill="url(#paint7_linear_53_2294)" fill-opacity="0.25"/>
<g style="mix-blend-mode:multiply">
<path fill-rule="evenodd" clip-rule="evenodd" d="M11.8395 22.0738H20.3678C22.4948 22.08 24.5328 22.9277 26.0367 24.4316C27.5407 25.9356 28.3883 27.9736 28.3946 30.1005C28.3883 32.2274 27.5407 34.2654 26.0367 35.7694C24.5328 37.2733 22.4948 38.121 20.3678 38.1272H11.8395C9.71256 38.121 7.67455 37.2733 6.17059 35.7694C4.66664 34.2654 3.81897 32.2274 3.81274 30.1005C3.81897 27.9736 4.66663 25.9356 6.17059 24.4316C7.67455 22.9277 9.71256 22.08 11.8395 22.0738Z" fill="#D783A6"/>
</g>
<g style="mix-blend-mode:multiply">
<path fill-rule="evenodd" clip-rule="evenodd" d="M39.4313 22.0738H47.9596C50.0865 22.08 52.1246 22.9277 53.6285 24.4316C55.1325 25.9356 55.9801 27.9736 55.9863 30.1005C55.9801 32.2274 55.1325 34.2654 53.6285 35.7694C52.1246 37.2733 50.0865 38.121 47.9596 38.1272H39.4313C37.3044 38.121 35.2663 37.2733 33.7624 35.7694C32.2584 34.2654 31.4108 32.2274 31.4045 30.1005C31.4108 27.9736 32.2584 25.9356 33.7624 24.4316C35.2663 22.9277 37.3044 22.08 39.4313 22.0738Z" fill="#A3D063"/>
</g>
<g style="mix-blend-mode:multiply">
<path fill-rule="evenodd" clip-rule="evenodd" d="M37.9262 12.0404V20.5688C37.92 22.6957 37.0723 24.7337 35.5684 26.2377C34.0644 27.7416 32.0264 28.5893 29.8995 28.5955C27.7726 28.5893 25.7346 27.7416 24.2306 26.2376C22.7267 24.7337 21.879 22.6957 21.8728 20.5688V12.0404C21.879 9.91349 22.7267 7.87547 24.2306 6.37152C25.7346 4.86756 27.7726 4.0199 29.8995 4.01367C32.0264 4.01989 34.0644 4.86755 35.5684 6.37151C37.0723 7.87547 37.92 9.91348 37.9262 12.0404Z" fill="#FBB230"/>
</g>
<g style="mix-blend-mode:multiply">
<path fill-rule="evenodd" clip-rule="evenodd" d="M37.9262 39.6322V48.1606C37.92 50.2875 37.0723 52.3255 35.5684 53.8294C34.0644 55.3334 32.0264 56.1811 29.8995 56.1873C27.7726 56.1811 25.7346 55.3334 24.2306 53.8294C22.7267 52.3255 21.879 50.2875 21.8728 48.1606V39.6322C21.879 37.5053 22.7267 35.4673 24.2306 33.9633C25.7346 32.4594 27.7726 31.6117 29.8995 31.6055C32.0264 31.6117 34.0644 32.4594 35.5684 33.9633C37.0723 35.4673 37.92 37.5053 37.9262 39.6322Z" fill="#79ABDB"/>
</g>
<g style="mix-blend-mode:multiply">
<path fill-rule="evenodd" clip-rule="evenodd" d="M22.776 11.639L28.796 17.6591C30.2904 19.1674 31.1288 21.2047 31.1288 23.3279C31.1288 25.4512 30.2904 27.4885 28.796 28.9968C27.2877 30.4912 25.2504 31.3296 23.1271 31.3296C21.0039 31.3296 18.9665 30.4912 17.4583 28.9968L11.4382 22.9768C9.94384 21.4685 9.10547 19.4311 9.10547 17.3079C9.10547 15.1847 9.94384 13.1473 11.4382 11.639C12.9465 10.1447 14.9839 9.30628 17.1071 9.30627C19.2303 9.30627 21.2677 10.1446 22.776 11.639Z" fill="#F3775E"/>
</g>
<g style="mix-blend-mode:multiply">
<path fill-rule="evenodd" clip-rule="evenodd" d="M42.3409 31.2041L48.361 37.2242C49.8554 38.7325 50.6937 40.7698 50.6937 42.893C50.6937 45.0163 49.8554 47.0536 48.361 48.5619C46.8527 50.0563 44.8153 50.8947 42.6921 50.8947C40.5688 50.8947 38.5315 50.0563 37.0232 48.5619L31.0032 42.5419C29.5088 41.0336 28.6704 38.9962 28.6704 36.873C28.6704 34.7498 29.5088 32.7124 31.0032 31.2041C31.7378 30.4425 32.6185 29.8367 33.5925 29.423C34.5665 29.0093 35.6138 28.796 36.672 28.796C37.7303 28.796 38.7776 29.0093 39.7516 29.423C40.7256 29.8367 41.6062 30.4425 42.3409 31.2041Z" fill="#6CBFAA"/>
</g>
<g style="mix-blend-mode:multiply">
<path fill-rule="evenodd" clip-rule="evenodd" d="M48.361 22.9768L42.3409 28.9968C40.8326 30.4912 38.7953 31.3296 36.6721 31.3296C34.5488 31.3296 32.5115 30.4912 31.0032 28.9968C29.5088 27.4885 28.6704 25.4512 28.6704 23.3279C28.6704 21.2047 29.5088 19.1674 31.0032 17.6591L37.0232 11.639C38.5315 10.1446 40.5688 9.30627 42.6921 9.30627C44.8153 9.30627 46.8527 10.1446 48.361 11.639C49.8554 13.1473 50.6937 15.1846 50.6937 17.3079C50.6937 19.4311 49.8554 21.4685 48.361 22.9768Z" fill="#EDE12C"/>
</g>
<g style="mix-blend-mode:multiply">
<path fill-rule="evenodd" clip-rule="evenodd" d="M28.796 42.5419L22.776 48.5619C21.2677 50.0563 19.2303 50.8947 17.1071 50.8947C14.9839 50.8947 12.9465 50.0563 11.4382 48.5619C9.94384 47.0536 9.10547 45.0163 9.10547 42.8931C9.10547 40.7698 9.94384 38.7325 11.4382 37.2242L17.4583 31.2042C18.9666 29.7098 21.0039 28.8714 23.1271 28.8714C25.2504 28.8714 27.2877 29.7098 28.796 31.2042C29.5576 31.9389 30.1634 32.8195 30.5771 33.7935C30.9909 34.7674 31.2041 35.8148 31.2041 36.873C31.2041 37.9312 30.9909 38.9786 30.5771 39.9526C30.1634 40.9266 29.5576 41.8072 28.796 42.5419Z" fill="#AC8DC1"/>
</g>
<g style="mix-blend-mode:overlay">
<path style="mix-blend-mode:overlay" fill-rule="evenodd" clip-rule="evenodd" d="M11.8395 22.0738H20.3678C22.4948 22.08 24.5328 22.9277 26.0367 24.4316C27.5407 25.9356 28.3883 27.9736 28.3946 30.1005C28.3883 32.2274 27.5407 34.2654 26.0367 35.7694C24.5328 37.2733 22.4948 38.121 20.3678 38.1272H11.8395C9.71256 38.121 7.67454 37.2733 6.17059 35.7694C4.66663 34.2654 3.81896 32.2274 3.81274 30.1005C3.81896 27.9736 4.66663 25.9356 6.17058 24.4316C7.67454 22.9277 9.71256 22.08 11.8395 22.0738Z" fill="url(#paint8_linear_53_2294)" fill-opacity="0.25"/>
<path style="mix-blend-mode:overlay" fill-rule="evenodd" clip-rule="evenodd" d="M39.4313 22.0738H47.9596C50.0865 22.08 52.1246 22.9277 53.6285 24.4316C55.1325 25.9356 55.9801 27.9736 55.9863 30.1005C55.9801 32.2274 55.1325 34.2654 53.6285 35.7694C52.1246 37.2733 50.0865 38.121 47.9596 38.1272H39.4313C37.3044 38.121 35.2663 37.2733 33.7624 35.7694C32.2584 34.2654 31.4108 32.2274 31.4045 30.1005C31.4108 27.9736 32.2584 25.9356 33.7624 24.4316C35.2663 22.9277 37.3044 22.08 39.4313 22.0738Z" fill="url(#paint9_linear_53_2294)" fill-opacity="0.25"/>
<path style="mix-blend-mode:overlay" fill-rule="evenodd" clip-rule="evenodd" d="M21.8728 20.5688V12.0404C21.879 9.91349 22.7267 7.87547 24.2306 6.37152C25.7346 4.86756 27.7726 4.0199 29.8995 4.01367C32.0264 4.01989 34.0644 4.86755 35.5684 6.37151C37.0723 7.87547 37.92 9.91348 37.9262 12.0404V20.5688C37.92 22.6957 37.0723 24.7337 35.5684 26.2377C34.0644 27.7416 32.0264 28.5893 29.8995 28.5955C27.7726 28.5893 25.7346 27.7416 24.2306 26.2376C22.7267 24.7337 21.879 22.6957 21.8728 20.5688Z" fill="url(#paint10_linear_53_2294)" fill-opacity="0.25"/>
<path style="mix-blend-mode:overlay" fill-rule="evenodd" clip-rule="evenodd" d="M37.9262 39.6322V48.1606C37.92 50.2875 37.0723 52.3255 35.5684 53.8295C34.0644 55.3334 32.0264 56.1811 29.8995 56.1873C27.7726 56.1811 25.7346 55.3334 24.2306 53.8294C22.7267 52.3255 21.879 50.2875 21.8728 48.1606V39.6322C21.879 37.5053 22.7267 35.4673 24.2306 33.9633C25.7346 32.4594 27.7726 31.6117 29.8995 31.6055C32.0264 31.6117 34.0644 32.4594 35.5683 33.9633C37.0723 35.4673 37.92 37.5053 37.9262 39.6322Z" fill="url(#paint11_linear_53_2294)" fill-opacity="0.25"/>
<path style="mix-blend-mode:overlay" fill-rule="evenodd" clip-rule="evenodd" d="M17.4583 28.9968L11.4382 22.9768C9.94384 21.4685 9.10547 19.4312 9.10547 17.3079C9.10547 15.1847 9.94384 13.1474 11.4382 11.6391C12.9465 10.1447 14.9839 9.30634 17.1071 9.30634C19.2303 9.30634 21.2677 10.1447 22.776 11.6391L28.796 17.6591C30.2904 19.1674 31.1288 21.2048 31.1288 23.328C31.1288 25.4512 30.2904 27.4886 28.796 28.9968C28.0613 29.7584 27.1807 30.3642 26.2067 30.7779C25.2327 31.1916 24.1854 31.4048 23.1271 31.4048C22.0689 31.4048 21.0216 31.1916 20.0476 30.7779C19.0736 30.3642 18.193 29.7584 17.4583 28.9968Z" fill="url(#paint12_linear_53_2294)" fill-opacity="0.25"/>
<path style="mix-blend-mode:overlay" fill-rule="evenodd" clip-rule="evenodd" d="M42.2406 31.2041L48.2606 37.2242C49.755 38.7325 50.5934 40.7698 50.5934 42.893C50.5934 45.0163 49.755 47.0536 48.2606 48.5619C46.7523 50.0563 44.715 50.8947 42.5917 50.8947C40.4685 50.8947 38.4311 50.0563 36.9228 48.5619L30.9028 42.5419C29.4084 41.0336 28.5701 38.9962 28.5701 36.873C28.5701 34.7498 29.4084 32.7124 30.9028 31.2041C31.6375 30.4425 32.5181 29.8368 33.4921 29.423C34.4661 29.0093 35.5135 28.7961 36.5717 28.7961C37.6299 28.7961 38.6773 29.0093 39.6513 29.423C40.6253 29.8368 41.5059 30.4425 42.2406 31.2041Z" fill="url(#paint13_linear_53_2294)" fill-opacity="0.25"/>
<path style="mix-blend-mode:overlay" fill-rule="evenodd" clip-rule="evenodd" d="M30.903 17.659L36.923 11.639C38.4313 10.1446 40.4687 9.30627 42.5919 9.30627C44.7152 9.30627 46.7525 10.1446 48.2608 11.639C49.7552 13.1473 50.5936 15.1847 50.5936 17.3079C50.5936 19.4311 49.7552 21.4685 48.2608 22.9767L42.2408 28.9968C40.7325 30.4911 38.6951 31.3295 36.5719 31.3295C34.4486 31.3295 32.4113 30.4911 30.903 28.9968C29.4085 27.4885 28.5701 25.4512 28.5701 23.3279C28.5701 21.2046 29.4085 19.1673 30.903 17.659Z" fill="url(#paint14_linear_53_2294)" fill-opacity="0.25"/>
<path style="mix-blend-mode:overlay" fill-rule="evenodd" clip-rule="evenodd" d="M28.7958 42.5419L22.7758 48.562C21.2675 50.0563 19.2301 50.8947 17.1069 50.8947C14.9836 50.8947 12.9463 50.0563 11.438 48.562C9.9436 47.0537 9.10522 45.0163 9.10522 42.8931C9.10522 40.7699 9.9436 38.7325 11.438 37.2242L17.458 31.2042C18.9663 29.7098 21.0037 28.8715 23.1269 28.8715C25.2501 28.8715 27.2875 29.7098 28.7958 31.2042C30.2902 32.7125 31.1286 34.7498 31.1286 36.8731C31.1286 38.9963 30.2902 41.0337 28.7958 42.5419Z" fill="url(#paint15_linear_53_2294)" fill-opacity="0.25"/>
</g>
<g style="mix-blend-mode:darken">
<path fill-rule="evenodd" clip-rule="evenodd" d="M22.0735 22.2745C23.5748 22.5967 24.951 23.3458 26.0368 24.4315C27.1225 25.5173 27.8716 26.8936 28.1938 28.3949C26.6853 28.0887 25.3003 27.345 24.2118 26.2565C23.1234 25.168 22.3796 23.783 22.0735 22.2745Z" fill="#D783A6"/>
</g>
<g style="mix-blend-mode:darken">
<path fill-rule="evenodd" clip-rule="evenodd" d="M31.6051 31.8061C31.9274 33.3074 32.6764 34.6837 33.7622 35.7695C34.8479 36.8552 36.2242 37.6043 37.7255 37.9265C37.4193 36.4179 36.6756 35.033 35.5872 33.9445C34.4987 32.856 33.1137 32.1123 31.6051 31.8061ZM31.6051 28.3948C31.9274 26.8935 32.6764 25.5172 33.7622 24.4315C34.8479 23.3457 36.2242 22.5967 37.7255 22.2744C37.4031 23.7757 36.654 25.1519 35.5683 26.2376C34.4826 27.3234 33.1064 28.0724 31.6051 28.3948ZM22.0734 37.9265C22.3956 36.4252 23.1447 35.049 24.2304 33.9632C25.3162 32.8774 26.6924 32.1284 28.1937 31.8061C27.8714 33.3074 27.1223 34.6836 26.0366 35.7693C24.9508 36.8551 23.5746 37.6042 22.0734 37.9265ZM18.7625 30.1005C20.0649 29.2652 21.5797 28.8212 23.127 28.8212C24.6742 28.8212 26.189 29.2652 27.4915 30.1005C26.189 30.9358 24.6742 31.3798 23.127 31.3798C21.5797 31.3798 20.0649 30.9358 18.7625 30.1005ZM32.3075 30.1005C33.61 30.9357 35.1248 31.3797 36.672 31.3797C38.2193 31.3797 39.7341 30.9357 41.0365 30.1005C39.7341 29.2651 38.2193 28.8211 36.672 28.8211C35.1248 28.8211 33.61 29.2651 32.3075 30.1005ZM29.8995 27.6924C29.0643 26.39 28.6203 24.8752 28.6203 23.3279C28.6203 21.7806 29.0643 20.2659 29.8995 18.9634C30.7348 20.2658 31.1788 21.7806 31.1788 23.3279C31.1788 24.8752 30.7348 26.39 29.8995 27.6924ZM29.8995 41.2375C29.0643 39.9351 28.6203 38.4203 28.6203 36.873C28.6203 35.3257 29.0643 33.8109 29.8995 32.5085C30.7348 33.8109 31.1788 35.3257 31.1788 36.873C31.1788 38.4203 30.7348 39.9351 29.8995 41.2375Z" fill="#D783A6"/>
</g>
<defs>
<linearGradient id="paint0_linear_53_2294" x1="3.81613" y1="30.1025" x2="28.3896" y2="30.1025" gradientUnits="userSpaceOnUse">
<stop stop-color="white" stop-opacity="0"/>
<stop offset="1"/>
</linearGradient>
<linearGradient id="paint1_linear_53_2294" x1="-325544" y1="310856" x2="-326752" y2="310856" gradientUnits="userSpaceOnUse">
<stop stop-color="white" stop-opacity="0"/>
<stop offset="1"/>
</linearGradient>
<linearGradient id="paint2_linear_53_2294" x1="-498995" y1="240858" x2="-498995" y2="241647" gradientUnits="userSpaceOnUse">
<stop stop-color="white" stop-opacity="0"/>
<stop offset="1"/>
</linearGradient>
<linearGradient id="paint3_linear_53_2294" x1="-423300" y1="-201375" x2="-423300" y2="-202165" gradientUnits="userSpaceOnUse">
<stop stop-color="white" stop-opacity="0"/>
<stop offset="1"/>
</linearGradient>
<linearGradient id="paint4_linear_53_2294" x1="-49088.2" y1="-535503" x2="-48322.5" y2="-536269" gradientUnits="userSpaceOnUse">
<stop stop-color="white" stop-opacity="0"/>
<stop offset="1"/>
</linearGradient>
<linearGradient id="paint5_linear_53_2294" x1="90506.3" y1="503169" x2="89740.5" y2="503935" gradientUnits="userSpaceOnUse">
<stop stop-color="white" stop-opacity="0"/>
<stop offset="1"/>
</linearGradient>
<linearGradient id="paint6_linear_53_2294" x1="-544156" y1="103095" x2="-544924" y2="102327" gradientUnits="userSpaceOnUse">
<stop stop-color="white" stop-opacity="0"/>
<stop offset="1"/>
</linearGradient>
<linearGradient id="paint7_linear_53_2294" x1="474246" y1="-33380.3" x2="475015" y2="-32636.3" gradientUnits="userSpaceOnUse">
<stop stop-color="white" stop-opacity="0"/>
<stop offset="1"/>
</linearGradient>
<linearGradient id="paint8_linear_53_2294" x1="-13671.2" y1="-20051.8" x2="-13621.8" y2="-20051.8" gradientUnits="userSpaceOnUse">
<stop stop-color="white" stop-opacity="0"/>
<stop offset="1"/>
</linearGradient>
<linearGradient id="paint9_linear_53_2294" x1="-325545" y1="310856" x2="-326754" y2="310856" gradientUnits="userSpaceOnUse">
<stop stop-color="white" stop-opacity="0"/>
<stop offset="1"/>
</linearGradient>
<linearGradient id="paint10_linear_53_2294" x1="-498995" y1="240858" x2="-498995" y2="241647" gradientUnits="userSpaceOnUse">
<stop stop-color="white" stop-opacity="0"/>
<stop offset="1"/>
</linearGradient>
<linearGradient id="paint11_linear_53_2294" x1="-423300" y1="-201375" x2="-423300" y2="-202165" gradientUnits="userSpaceOnUse">
<stop stop-color="white" stop-opacity="0"/>
<stop offset="1"/>
</linearGradient>
<linearGradient id="paint12_linear_53_2294" x1="-49087.6" y1="-535503" x2="-48321.9" y2="-536269" gradientUnits="userSpaceOnUse">
<stop stop-color="white" stop-opacity="0"/>
<stop offset="1"/>
</linearGradient>
<linearGradient id="paint13_linear_53_2294" x1="90504.7" y1="503173" x2="89739.3" y2="503939" gradientUnits="userSpaceOnUse">
<stop stop-color="white" stop-opacity="0"/>
<stop offset="1"/>
</linearGradient>
<linearGradient id="paint14_linear_53_2294" x1="-543399" y1="103847" x2="-544165" y2="103081" gradientUnits="userSpaceOnUse">
<stop stop-color="white" stop-opacity="0"/>
<stop offset="1"/>
</linearGradient>
<linearGradient id="paint15_linear_53_2294" x1="473496" y1="-34129.1" x2="474262" y2="-33387.6" gradientUnits="userSpaceOnUse">
<stop stop-color="white" stop-opacity="0"/>
<stop offset="1"/>
</linearGradient>
</defs>
</svg>
