<svg width="60" height="60" viewBox="0 0 60 60" fill="none" xmlns="http://www.w3.org/2000/svg">
<path fill-rule="evenodd" clip-rule="evenodd" d="M15.3333 15C15.3333 17.2091 13.5424 19 11.3333 19C9.12411 19 7.33325 17.2091 7.33325 15C7.33325 12.7909 9.12411 11 11.3333 11C13.5424 11 15.3333 12.7909 15.3333 15ZM16.3333 15C16.3333 17.7614 14.0947 20 11.3333 20C8.57183 20 6.33325 17.7614 6.33325 15C6.33325 12.2386 8.57183 10 11.3333 10C14.0947 10 16.3333 12.2386 16.3333 15ZM11.3333 18C12.9901 18 14.3333 16.6569 14.3333 15C14.3333 13.3431 12.9901 12 11.3333 12C9.67642 12 8.33328 13.3431 8.33328 15C8.33328 16.6569 9.67642 18 11.3333 18Z" fill="url(#paint0_linear_91_8)"/>
<path fill-rule="evenodd" clip-rule="evenodd" d="M15.3333 30C15.3333 32.2091 13.5424 34 11.3333 34C9.12411 34 7.33325 32.2091 7.33325 30C7.33325 27.7909 9.12411 26 11.3333 26C13.5424 26 15.3333 27.7909 15.3333 30ZM16.3333 30C16.3333 32.7614 14.0947 35 11.3333 35C8.57183 35 6.33325 32.7614 6.33325 30C6.33325 27.2386 8.57183 25 11.3333 25C14.0947 25 16.3333 27.2386 16.3333 30ZM11.3333 33C12.9901 33 14.3333 31.6569 14.3333 30C14.3333 28.3431 12.9901 27 11.3333 27C9.67642 27 8.33328 28.3431 8.33328 30C8.33328 31.6569 9.67642 33 11.3333 33Z" fill="url(#paint1_linear_91_8)"/>
<path fill-rule="evenodd" clip-rule="evenodd" d="M15.3333 45C15.3333 47.2091 13.5424 49 11.3333 49C9.12411 49 7.33325 47.2091 7.33325 45C7.33325 42.7909 9.12411 41 11.3333 41C13.5424 41 15.3333 42.7909 15.3333 45ZM16.3333 45C16.3333 47.7614 14.0947 50 11.3333 50C8.57183 50 6.33325 47.7614 6.33325 45C6.33325 42.2386 8.57183 40 11.3333 40C14.0947 40 16.3333 42.2386 16.3333 45ZM11.3333 48C12.9901 48 14.3333 46.6569 14.3333 45C14.3333 43.3432 12.9901 42 11.3333 42C9.67642 42 8.33328 43.3432 8.33328 45C8.33328 46.6569 9.67642 48 11.3333 48Z" fill="url(#paint2_linear_91_8)"/>
<path fill-rule="evenodd" clip-rule="evenodd" d="M22.5 14.3334C22.2239 14.3334 22 14.5572 22 14.8334C22 15.1095 22.2239 15.3334 22.5 15.3334H52.5C52.7761 15.3334 53 15.1095 53 14.8334C53 14.5572 52.7761 14.3334 52.5 14.3334H22.5ZM22 29.8334C22 29.5572 22.2239 29.3334 22.5 29.3334H52.5C52.7762 29.3334 53 29.5572 53 29.8334C53 30.1095 52.7762 30.3334 52.5 30.3334H22.5C22.2239 30.3334 22 30.1095 22 29.8334ZM22 44.8334C22 44.5572 22.2239 44.3334 22.5 44.3334H52.5C52.7762 44.3334 53 44.5572 53 44.8334C53 45.1095 52.7762 45.3334 52.5 45.3334H22.5C22.2239 45.3334 22 45.1095 22 44.8334Z" fill="#C6C5C9"/>
<defs>
<linearGradient id="paint0_linear_91_8" x1="11.3333" y1="10" x2="11.3333" y2="20" gradientUnits="userSpaceOnUse">
<stop stop-color="#077CFF"/>
<stop offset="1" stop-color="#047BFE"/>
</linearGradient>
<linearGradient id="paint1_linear_91_8" x1="11.3333" y1="25" x2="11.3333" y2="35" gradientUnits="userSpaceOnUse">
<stop stop-color="#FD4235"/>
<stop offset="1" stop-color="#FF3F33"/>
</linearGradient>
<linearGradient id="paint2_linear_91_8" x1="11.3333" y1="40" x2="11.3333" y2="50" gradientUnits="userSpaceOnUse">
<stop stop-color="#FF9700"/>
<stop offset="1" stop-color="#FE9404"/>
</linearGradient>
</defs>
</svg>
