<svg width="60" height="60" viewBox="0 0 60 60" fill="none" xmlns="http://www.w3.org/2000/svg">
<circle cx="30" cy="30" r="26.25" fill="url(#paint0_linear_53_2306)"/>
<path d="M29.6485 5.625H30.3516V10.0781H29.6485V5.625Z" fill="white"/>
<path d="M29.6485 49.9219H30.3516V54.375H29.6485V49.9219Z" fill="white"/>
<path d="M25.4211 6.05636L26.1136 5.93426L26.8868 10.3197L26.1944 10.4418L25.4211 6.05636Z" fill="white"/>
<path d="M33.1132 49.6802L33.8056 49.5582L34.5789 53.9436L33.8865 54.0657L33.1132 49.6802Z" fill="white"/>
<path d="M21.3329 7.21523L21.9936 6.97474L23.5167 11.1593L22.856 11.3998L21.3329 7.21523Z" fill="white"/>
<path d="M36.4833 48.8407L37.144 48.6002L38.6671 52.7848L38.0064 53.0252L36.4833 48.8407Z" fill="white"/>
<path d="M21.3329 52.7848L21.9936 53.0253L23.5167 48.8407L22.856 48.6002L21.3329 52.7848Z" fill="white"/>
<path d="M36.4833 11.1593L37.144 11.3998L38.6671 7.21523L38.0064 6.97475L36.4833 11.1593Z" fill="white"/>
<path d="M25.4211 53.9436L26.1136 54.0657L26.8868 49.6803L26.1944 49.5582L25.4211 53.9436Z" fill="white"/>
<path d="M33.1132 10.3198L33.8056 10.4418L34.5789 6.05637L33.8865 5.93428L33.1132 10.3198Z" fill="white"/>
<path d="M17.5081 9.06641L18.117 8.71485L20.3435 12.5714L19.7346 12.9229L17.5081 9.06641Z" fill="white"/>
<path d="M39.6565 47.4286L40.2654 47.0771L42.492 50.9336L41.8831 51.2852L39.6565 47.4286Z" fill="white"/>
<path d="M17.508 50.9336L18.117 51.2852L20.3435 47.4286L19.7346 47.0771L17.508 50.9336Z" fill="white"/>
<path d="M39.6565 12.5714L40.2654 12.923L42.492 9.06643L41.883 8.71487L39.6565 12.5714Z" fill="white"/>
<path d="M14.0627 11.5537L14.6014 11.1017L17.4638 14.513L16.9252 14.9649L14.0627 11.5537Z" fill="white"/>
<path d="M42.5362 45.487L43.0749 45.0351L45.9373 48.4464L45.3986 48.8983L42.5362 45.487Z" fill="white"/>
<path d="M14.0627 48.4464L14.6014 48.8983L17.4638 45.487L16.9252 45.0351L14.0627 48.4464Z" fill="white"/>
<path d="M42.5362 14.513L43.0749 14.9649L45.9373 11.5537L45.3986 11.1017L42.5362 14.513Z" fill="white"/>
<path d="M11.1017 14.6014L11.5536 14.0627L14.9649 16.9251L14.513 17.4638L11.1017 14.6014Z" fill="white"/>
<path d="M45.0351 43.0748L45.487 42.5362L48.8983 45.3986L48.4464 45.9373L45.0351 43.0748Z" fill="white"/>
<path d="M11.1017 45.3986L11.5537 45.9373L14.965 43.0749L14.513 42.5362L11.1017 45.3986Z" fill="white"/>
<path d="M45.0351 16.9252L45.487 17.4638L48.8983 14.6014L48.4464 14.0627L45.0351 16.9252Z" fill="white"/>
<path d="M8.71486 18.117L9.06642 17.508L12.9229 19.7346L12.5714 20.3435L8.71486 18.117Z" fill="white"/>
<path d="M47.0771 40.2654L47.4286 39.6565L51.2852 41.8831L50.9336 42.492L47.0771 40.2654Z" fill="white"/>
<path d="M8.71486 41.883L9.06642 42.492L12.9229 40.2654L12.5714 39.6565L8.71486 41.883Z" fill="white"/>
<path d="M47.0771 19.7346L47.4286 20.3435L51.2852 18.117L50.9336 17.508L47.0771 19.7346Z" fill="white"/>
<path d="M6.97476 21.9936L7.21524 21.3329L11.3998 22.856L11.1593 23.5167L6.97476 21.9936Z" fill="white"/>
<path d="M48.6002 37.1441L48.8407 36.4833L53.0253 38.0064L52.7848 38.6671L48.6002 37.1441Z" fill="white"/>
<path d="M6.97476 38.0064L7.21524 38.6671L11.3998 37.144L11.1593 36.4833L6.97476 38.0064Z" fill="white"/>
<path d="M48.6002 22.856L48.8407 23.5167L53.0253 21.9936L52.7848 21.3329L48.6002 22.856Z" fill="white"/>
<path d="M5.93428 26.1135L6.05637 25.4211L10.4418 26.1944L10.3197 26.8868L5.93428 26.1135Z" fill="white"/>
<path d="M49.5582 33.8056L49.6803 33.1132L54.0658 33.8865L53.9437 34.5789L49.5582 33.8056Z" fill="white"/>
<path d="M5.93426 33.8865L6.05636 34.5789L10.4418 33.8056L10.3197 33.1132L5.93426 33.8865Z" fill="white"/>
<path d="M49.5582 26.1944L49.6803 26.8868L54.0657 26.1135L53.9436 25.4211L49.5582 26.1944Z" fill="white"/>
<path d="M5.625 30.3516V29.6484H10.0781V30.3516H5.625Z" fill="white"/>
<path d="M49.9219 30.3516V29.6484H54.375V30.3516H49.9219Z" fill="white"/>
<path d="M27.5254 5.7484L28.2258 5.68711L28.4709 8.48891L27.7705 8.55019L27.5254 5.7484Z" fill="white"/>
<path d="M31.5291 51.5111L32.2295 51.4498L32.4746 54.2516L31.7742 54.3129L31.5291 51.5111Z" fill="white"/>
<path d="M31.7742 5.68711L32.4747 5.74839L32.2295 8.55019L31.5291 8.48891L31.7742 5.68711Z" fill="white"/>
<path d="M27.7705 51.4498L28.471 51.5111L28.2258 54.3129L27.5254 54.2516L27.7705 51.4498Z" fill="white"/>
<path d="M23.3517 6.54655L24.0309 6.36457L24.7588 9.08123L24.0797 9.26322L23.3517 6.54655Z" fill="white"/>
<path d="M35.2412 50.9188L35.9204 50.7368L36.6483 53.4534L35.9691 53.6354L35.2412 50.9188Z" fill="white"/>
<path d="M23.3517 53.4535L24.0309 53.6354L24.7588 50.9188L24.0797 50.7368L23.3517 53.4535Z" fill="white"/>
<path d="M35.2412 9.08124L35.9204 9.26322L36.6483 6.54655L35.9691 6.36457L35.2412 9.08124Z" fill="white"/>
<path d="M19.3801 8.05733L20.0173 7.76017L21.2059 10.3092L20.5687 10.6063L19.3801 8.05733Z" fill="white"/>
<path d="M38.7941 49.6909L39.4314 49.3937L40.62 51.9427L39.9827 52.2398L38.7941 49.6909Z" fill="white"/>
<path d="M19.3801 51.9427L20.0173 52.2398L21.2059 49.6908L20.5687 49.3937L19.3801 51.9427Z" fill="white"/>
<path d="M38.7941 10.3091L39.4314 10.6063L40.62 8.0573L39.9827 7.76015L38.7941 10.3091Z" fill="white"/>
<path d="M15.7311 10.2348L16.3071 9.83153L17.9203 12.1354L17.3443 12.5387L15.7311 10.2348Z" fill="white"/>
<path d="M42.0798 47.8646L42.6558 47.4613L44.2689 49.7652L43.693 50.1685L42.0798 47.8646Z" fill="white"/>
<path d="M15.7311 49.7652L16.3071 50.1685L17.9203 47.8646L17.3443 47.4613L15.7311 49.7652Z" fill="white"/>
<path d="M42.0798 12.1354L42.6558 12.5387L44.2689 10.2348L43.693 9.83152L42.0798 12.1354Z" fill="white"/>
<path d="M12.5157 13.0129L13.0129 12.5157L15.0016 14.5044L14.5044 15.0016L12.5157 13.0129Z" fill="white"/>
<path d="M44.9984 45.4956L45.4956 44.9984L47.4844 46.9871L46.9872 47.4843L44.9984 45.4956Z" fill="white"/>
<path d="M9.83155 16.3071L10.2348 15.7311L12.5387 17.3443L12.1354 17.9202L9.83155 16.3071Z" fill="white"/>
<path d="M47.4614 42.6557L47.8647 42.0798L50.1685 43.6929L49.7652 44.2689L47.4614 42.6557Z" fill="white"/>
<path d="M9.83155 43.6929L10.2348 44.2689L12.5387 42.6557L12.1354 42.0798L9.83155 43.6929Z" fill="white"/>
<path d="M47.4614 17.3443L47.8647 17.9202L50.1685 16.3071L49.7652 15.7311L47.4614 17.3443Z" fill="white"/>
<path d="M7.7602 20.0173L8.05735 19.3801L10.6063 20.5687L10.3092 21.2059L7.7602 20.0173Z" fill="white"/>
<path d="M49.3937 39.4313L49.6909 38.7941L52.2399 39.9827L51.9427 40.6199L49.3937 39.4313Z" fill="white"/>
<path d="M7.7602 39.9827L8.05735 40.6199L10.6063 39.4313L10.3092 38.7941L7.7602 39.9827Z" fill="white"/>
<path d="M49.3937 20.5687L49.6909 21.2059L52.2399 20.0173L51.9427 19.3801L49.3937 20.5687Z" fill="white"/>
<path d="M6.36459 24.0309L6.54657 23.3517L9.26324 24.0796L9.08125 24.7588L6.36459 24.0309Z" fill="white"/>
<path d="M50.7368 35.9204L50.9188 35.2412L53.6355 35.9691L53.4535 36.6483L50.7368 35.9204Z" fill="white"/>
<path d="M6.36459 35.9691L6.54657 36.6483L9.26324 35.9204L9.08125 35.2412L6.36459 35.9691Z" fill="white"/>
<path d="M50.7368 24.0797L50.9188 24.7588L53.6355 24.0309L53.4535 23.3517L50.7368 24.0797Z" fill="white"/>
<path d="M5.68714 28.2258L5.74842 27.5254L8.55022 27.7705L8.48894 28.4709L5.68714 28.2258Z" fill="white"/>
<path d="M51.4498 32.2295L51.5111 31.5291L54.3129 31.7742L54.2516 32.4746L51.4498 32.2295Z" fill="white"/>
<path d="M5.68713 31.7742L5.74841 32.4747L8.55021 32.2295L8.48892 31.5291L5.68713 31.7742Z" fill="white"/>
<path d="M51.4498 27.7705L51.5111 28.4709L54.3129 28.2258L54.2516 27.5254L51.4498 27.7705Z" fill="white"/>
<path d="M5.74841 32.4747L5.68713 31.7742L8.48892 31.5291L8.55021 32.2295L5.74841 32.4747Z" fill="white"/>
<path d="M51.5111 28.4709L51.4498 27.7705L54.2516 27.5254L54.3129 28.2258L51.5111 28.4709Z" fill="white"/>
<path d="M5.74842 27.5254L5.68714 28.2258L8.48894 28.4709L8.55022 27.7705L5.74842 27.5254Z" fill="white"/>
<path d="M51.5111 31.5291L51.4498 32.2295L54.2516 32.4746L54.3129 31.7742L51.5111 31.5291Z" fill="white"/>
<g filter="url(#filter0_d_53_2306)">
<path d="M47.2357 12.7642L31.6572 31.6572L28.3426 28.3427L47.2357 12.7642Z" fill="#FE3C30"/>
<path d="M12.7642 47.2357L31.6572 31.6572L28.3427 28.3426L12.7642 47.2357Z" fill="white"/>
</g>
<defs>
<filter id="filter0_d_53_2306" x="8.70166" y="12.7642" width="42.5964" height="42.5964" filterUnits="userSpaceOnUse" color-interpolation-filters="sRGB">
<feFlood flood-opacity="0" result="BackgroundImageFix"/>
<feColorMatrix in="SourceAlpha" type="matrix" values="0 0 0 0 0 0 0 0 0 0 0 0 0 0 0 0 0 0 127 0" result="hardAlpha"/>
<feOffset dy="4.0625"/>
<feGaussianBlur stdDeviation="2.03125"/>
<feColorMatrix type="matrix" values="0 0 0 0 0 0 0 0 0 0 0 0 0 0 0 0 0 0 0.25 0"/>
<feBlend mode="normal" in2="BackgroundImageFix" result="effect1_dropShadow_53_2306"/>
<feBlend mode="normal" in="SourceGraphic" in2="effect1_dropShadow_53_2306" result="shape"/>
</filter>
<linearGradient id="paint0_linear_53_2306" x1="30" y1="3.83077" x2="30" y2="56.1692" gradientUnits="userSpaceOnUse">
<stop stop-color="#1BC9FA"/>
<stop offset="0.760051" stop-color="#1F70F0"/>
</linearGradient>
</defs>
</svg>
