<svg width="60" height="62" viewBox="0 0 60 62" fill="none" xmlns="http://www.w3.org/2000/svg">
<path d="M56.25 30C56.25 44.4975 44.4975 56.25 30 56.25C15.5025 56.25 3.75 44.4975 3.75 30C3.75 15.5025 15.5025 3.75 30 3.75C44.4975 3.75 56.25 15.5025 56.25 30Z" fill="#2E2E2F"/>
<path fill-rule="evenodd" clip-rule="evenodd" d="M29.8597 14.4137C29.8883 14.2578 30.1118 14.2578 30.1404 14.4137L30.5514 16.654C30.7032 16.6601 30.8542 16.6688 31.0046 16.68L31.6733 14.5028C31.7199 14.3512 31.9418 14.3772 31.9521 14.5354L32.0997 16.8064C32.2499 16.83 32.3992 16.8561 32.5477 16.8847L33.4643 14.8015C33.5282 14.6564 33.7456 14.708 33.7374 14.8663L33.62 17.1374C33.7665 17.1784 33.9119 17.2219 34.0563 17.2677L35.2084 15.3058C35.2887 15.1691 35.4987 15.2456 35.4722 15.4019L35.0914 17.6438C35.232 17.7016 35.3714 17.7617 35.5095 17.8241L36.8821 16.0088C36.9777 15.8823 37.1774 15.9828 37.1328 16.1349L36.4937 18.3185C36.6263 18.3921 36.7575 18.4679 36.8873 18.5459L38.4626 16.901C38.5723 16.7865 38.759 16.9095 38.697 17.0554L37.8077 19.1514C37.9307 19.2397 38.052 19.33 38.1718 19.4223L39.9287 17.9704C40.0509 17.8694 40.2221 18.0132 40.1436 18.151L39.0162 20.1303C39.1279 20.2321 39.2379 20.3358 39.3462 20.4412L41.2605 19.2024C41.3936 19.1162 41.5469 19.279 41.4529 19.4067L40.1031 21.2418C40.2023 21.3558 40.2997 21.4715 40.395 21.5888L42.4399 20.5804C42.5821 20.5103 42.7155 20.6898 42.6074 20.8057L41.0541 22.4711C41.1395 22.5958 41.2229 22.7221 41.3042 22.8498L43.4511 22.0858C43.6005 22.0326 43.7122 22.2264 43.5913 22.329L41.8561 23.802C41.9265 23.936 41.9947 24.0713 42.0607 24.2079L44.2804 23.6982C44.435 23.6627 44.5234 23.8681 44.3914 23.956L42.4975 25.2174C42.5518 25.3587 42.6038 25.5011 42.6533 25.6446L44.9166 25.3957C45.0742 25.3784 45.1383 25.5926 44.997 25.6647L42.9689 26.6982C43.0062 26.8447 43.0411 26.9921 43.0735 27.1404L45.3511 27.1555C45.5097 27.1565 45.5484 27.3768 45.3997 27.4319L43.2636 28.224C43.2835 28.3734 43.3009 28.5237 43.3158 28.6746L45.578 28.9537C45.7354 28.9731 45.7484 29.1964 45.5943 29.2339L43.379 29.7735C43.3803 29.8489 43.3809 29.9245 43.3809 30.0003C43.3809 30.0758 43.3803 30.1512 43.379 30.2265L45.5943 30.766C45.7484 30.8035 45.7354 31.0268 45.578 31.0463L43.3159 31.3253C43.301 31.4763 43.2836 31.6265 43.2637 31.7759L45.3997 32.568C45.5484 32.6231 45.5097 32.8434 45.3511 32.8445L43.0736 32.8595C43.0412 33.0079 43.0063 33.1553 42.969 33.3018L44.997 34.3353C45.1383 34.4073 45.0742 34.6216 44.9166 34.6042L42.6536 34.3553C42.604 34.4989 42.552 34.6414 42.4977 34.7827L44.3914 36.0439C44.5234 36.1319 44.435 36.3373 44.2804 36.3018L42.061 35.7921C41.995 35.9288 41.9268 36.0641 41.8563 36.1981L43.5913 37.6709C43.7122 37.7736 43.6005 37.9673 43.4511 37.9141L41.3045 37.1502C41.2232 37.278 41.1398 37.4044 41.0544 37.5292L42.6074 39.1942C42.7155 39.3102 42.5821 39.4896 42.4399 39.4195L40.3954 38.4114C40.3 38.5287 40.2026 38.6444 40.1034 38.7585L41.4529 40.5932C41.5469 40.7209 41.3936 40.8837 41.2605 40.7975L39.3466 39.559C39.2383 39.6645 39.1282 39.7682 39.0164 39.87L40.1436 41.849C40.2221 41.9867 40.0509 42.1306 39.9287 42.0296L38.1722 40.5779C38.0524 40.6703 37.931 40.7607 37.808 40.8491L38.697 42.9445C38.759 43.0905 38.5723 43.2134 38.4626 43.0989L36.8878 41.4545C36.7579 41.5325 36.6266 41.6084 36.4939 41.682L37.1328 43.865C37.1774 44.0172 36.9777 44.1176 36.8821 43.9912L35.5099 42.1763C35.3716 42.2388 35.2322 42.2989 35.0915 42.3567L35.4722 44.598C35.4987 44.7543 35.2887 44.8309 35.2084 44.6942L34.0567 42.7328C33.9122 42.7787 33.7666 42.8221 33.62 42.8632L33.7374 45.1336C33.7456 45.2919 33.5282 45.3435 33.4643 45.1984L32.548 43.1159C32.3994 43.1444 32.2499 43.1706 32.0997 43.1942L31.9521 45.4645C31.9418 45.6227 31.7199 45.6487 31.6733 45.4971L31.0049 43.3206C30.8543 43.3318 30.7031 43.3405 30.5513 43.3466L30.1404 45.5862C30.1118 45.7422 29.8883 45.7422 29.8597 45.5862L29.4488 43.3466C29.2969 43.3405 29.1457 43.3318 28.9952 43.3207L28.3268 45.4971C28.2802 45.6487 28.0583 45.6227 28.048 45.4645L27.9004 43.1943C27.7501 43.1707 27.6007 43.1445 27.4521 43.1159L26.5358 45.1984C26.4719 45.3435 26.2545 45.2919 26.2627 45.1336L26.3801 42.8633C26.2335 42.8222 26.0879 42.7788 25.9433 42.7329L24.7917 44.6942C24.7114 44.8309 24.5014 44.7543 24.5279 44.598L24.9085 42.3569C24.7679 42.2991 24.6284 42.2389 24.4901 42.1765L23.118 43.9912C23.0224 44.1176 22.8227 44.0172 22.8672 43.865L23.5062 41.6822C23.3734 41.6086 23.2421 41.5327 23.1122 41.4547L21.5375 43.0989C21.4278 43.2134 21.2411 43.0905 21.303 42.9445L22.192 40.8493C22.069 40.7609 21.9475 40.6705 21.8277 40.5781L20.0714 42.0296C19.9492 42.1306 19.778 41.9867 19.8565 41.849L20.9835 39.8703C20.8717 39.7684 20.7616 39.6647 20.6533 39.5591L18.7396 40.7975C18.6065 40.8837 18.4532 40.7209 18.5472 40.5932L19.8965 38.7587C19.7972 38.6447 19.6998 38.5289 19.6044 38.4115L17.5602 39.4195C17.418 39.4896 17.2846 39.3102 17.3927 39.1942L18.9455 37.5294C18.86 37.4046 18.7765 37.2782 18.6952 37.1503L16.549 37.9141C16.3996 37.9673 16.2879 37.7736 16.4088 37.6709L18.1435 36.1984C18.073 36.0643 18.0047 35.9289 17.9387 35.7922L15.7197 36.3018C15.5651 36.3373 15.4767 36.1319 15.6087 36.0439L17.502 34.7829C17.4477 34.6415 17.3957 34.499 17.3461 34.3554L15.0835 34.6042C14.9259 34.6216 14.8618 34.4073 15.0031 34.3353L17.0307 33.302C16.9934 33.1554 16.9585 33.0079 16.926 32.8595L14.649 32.8445C14.4904 32.8434 14.4516 32.6231 14.6004 32.568L16.736 31.7761C16.7161 31.6266 16.6987 31.4763 16.6838 31.3253L14.4221 31.0463C14.2647 31.0268 14.2517 30.8035 14.4058 30.766L16.6207 30.2266C16.6194 30.1513 16.6188 30.0759 16.6188 30.0003C16.6188 29.9245 16.6194 29.8489 16.6207 29.7734L14.4058 29.2339C14.2517 29.1964 14.2647 28.9731 14.4221 28.9537L16.6839 28.6746C16.6988 28.5236 16.7162 28.3734 16.7361 28.2239L14.6004 27.4319C14.4516 27.3768 14.4904 27.1565 14.649 27.1555L16.9262 27.1404C16.9586 26.992 16.9935 26.8445 17.0309 26.698L15.0031 25.6647C14.8618 25.5926 14.9259 25.3784 15.0835 25.3957L17.3464 25.6446C17.396 25.501 17.4479 25.3585 17.5023 25.2172L15.6087 23.956C15.4767 23.8681 15.5651 23.6627 15.7197 23.6982L17.939 24.2078C18.005 24.0711 18.0733 23.9358 18.1437 23.8018L16.4088 22.329C16.2879 22.2264 16.3996 22.0326 16.549 22.0858L18.6956 22.8497C18.7769 22.7219 18.8603 22.5956 18.9458 22.4708L17.3927 20.8057C17.2846 20.6898 17.418 20.5103 17.5602 20.5804L19.6048 21.5886C19.7002 21.4713 19.7975 21.3556 19.8968 21.2416L18.5472 19.4067C18.4532 19.279 18.6065 19.1162 18.7396 19.2024L20.6537 20.4411C20.762 20.3356 20.872 20.2319 20.9838 20.1301L19.8565 18.151C19.778 18.0132 19.9492 17.8694 20.0714 17.9704L21.8281 19.4222C21.9479 19.3298 22.0693 19.2395 22.1923 19.1511L21.303 17.0554C21.2411 16.9095 21.4278 16.7865 21.5375 16.901L23.1126 18.5457C23.2424 18.4677 23.3737 18.3919 23.5064 18.3183L22.8672 16.1349C22.8227 15.9828 23.0224 15.8823 23.118 16.0088L24.4905 17.824C24.6287 17.7616 24.7681 17.7015 24.9087 17.6437L24.5279 15.4019C24.5014 15.2456 24.7114 15.1691 24.7917 15.3058L25.9437 17.2676C26.0881 17.2218 26.2336 17.1783 26.3801 17.1373L26.2627 14.8663C26.2545 14.708 26.4719 14.6564 26.5358 14.8015L27.4523 16.8846C27.6008 16.8561 27.7502 16.8299 27.9004 16.8063L28.048 14.5354C28.0583 14.3772 28.2802 14.3512 28.3268 14.5028L28.9954 16.6799C29.1458 16.6688 29.2969 16.6601 29.4487 16.654L29.8597 14.4137ZM30.0001 41.25C36.2133 41.25 41.2501 36.2132 41.2501 30C41.2501 23.7868 36.2133 18.75 30.0001 18.75C23.7869 18.75 18.7501 23.7868 18.7501 30C18.7501 36.2132 23.7869 41.25 30.0001 41.25Z" fill="url(#paint0_linear_91_235)"/>
<g filter="url(#filter0_d_91_235)">
<path fill-rule="evenodd" clip-rule="evenodd" d="M30.1705 5.94955C30.1413 5.75363 29.8588 5.75363 29.8296 5.94955L29.2654 9.73965C28.9677 9.75025 28.6717 9.76727 28.3774 9.79057L27.3772 6.09238C27.3255 5.90118 27.0449 5.93398 27.0387 6.13195L26.9184 9.9593C26.6238 10.0042 26.3314 10.0555 26.0412 10.1129L24.6195 6.55853C24.5459 6.37462 24.271 6.43978 24.2878 6.63714L24.6124 10.4503C24.3251 10.5293 24.0404 10.6144 23.7584 10.7056L21.9345 7.34168C21.84 7.16756 21.5745 7.26419 21.6142 7.45826L22.3792 11.2077C22.1034 11.3196 21.8306 11.4375 21.561 11.5611L19.3585 8.43124C19.2445 8.26926 18.992 8.39606 19.0539 8.58422L20.2496 12.221C19.9891 12.3641 19.7321 12.5129 19.4788 12.667L16.9265 9.81249C16.7945 9.66483 16.5584 9.82009 16.6417 9.9998L18.2524 13.4752C18.0107 13.6473 17.7729 13.8247 17.5392 14.007L14.6713 11.4667C14.523 11.3354 14.3066 11.517 14.4101 11.6858L16.4142 14.952C16.1942 15.1507 15.9786 15.3542 15.7675 15.5623L12.6233 13.3716C12.4608 13.2584 12.2669 13.4639 12.3894 13.6196L14.759 16.6309C14.5635 16.8536 14.3728 17.0806 14.187 17.3119L10.8104 15.5014C10.6358 15.4078 10.4671 15.6344 10.6068 15.7748L13.3089 18.4895C13.1403 18.7334 12.977 18.9812 12.8191 19.2327L9.25694 17.8272C9.07269 17.7545 8.93143 17.9992 9.08651 18.1224L12.0837 20.5037C11.9446 20.7656 11.811 21.031 11.6832 21.2996L7.98402 20.3176C7.79258 20.2668 7.68067 20.5262 7.84901 20.6306L11.1012 22.6471C10.9936 22.9234 10.8919 23.2027 10.7962 23.4847L7.00883 22.939C6.81278 22.9108 6.73175 23.1814 6.91107 23.2655L10.3758 24.8911C10.3014 25.1777 10.2331 25.4668 10.1711 25.7582L6.34455 25.6559C6.14655 25.6506 6.09749 25.9288 6.28536 25.9915L9.91776 27.2046C9.87739 27.4974 9.84326 27.7921 9.81553 28.0887L6.00017 28.4315C5.80289 28.4492 5.78647 28.7312 5.98035 28.7718L9.73139 29.5554C9.72821 29.7032 9.72661 29.8514 9.72661 30C9.72661 30.1486 9.72821 30.2968 9.73139 30.4446L5.98035 31.2283C5.78647 31.2688 5.8029 31.5508 6.00017 31.5686L9.81553 31.9114C9.84326 32.208 9.87739 32.5027 9.91776 32.7954L6.28536 34.0085C6.09749 34.0712 6.14655 34.3495 6.34455 34.3442L10.1711 34.2418C10.2331 34.5332 10.3014 34.8223 10.3758 35.109L6.91107 36.7345C6.73175 36.8186 6.81278 37.0893 7.00883 37.061L10.7962 36.5153C10.8919 36.7974 10.9936 37.0766 11.1012 37.353L7.84901 39.3694C7.68067 39.4738 7.79257 39.7332 7.98402 39.6824L11.6832 38.7005C11.811 38.9691 11.9446 39.2344 12.0837 39.4964L9.08651 41.8777C8.93143 42.0009 9.07269 42.2456 9.25694 42.1729L12.8191 40.7673C12.977 41.0188 13.1403 41.2666 13.3089 41.5106L10.6068 44.2253C10.4671 44.3657 10.6358 44.5923 10.8104 44.4987L14.187 42.6882C14.3728 42.9194 14.5635 43.1465 14.759 43.3692L12.3894 46.3805C12.2669 46.5361 12.4608 46.7417 12.6233 46.6284L15.7675 44.4378C15.9786 44.6458 16.1942 44.8493 16.4142 45.0481L14.4101 48.3142C14.3066 48.483 14.523 48.6646 14.6713 48.5333L17.5392 45.993C17.7729 46.1754 18.0107 46.3527 18.2524 46.5249L16.6417 50.0002C16.5584 50.18 16.7945 50.3352 16.9265 50.1875L19.4788 47.3331C19.7321 47.4872 19.9891 47.6359 20.2496 47.7791L19.0539 51.4158C18.9921 51.604 19.2445 51.7308 19.3585 51.5688L21.561 48.439C21.8306 48.5625 22.1034 48.6804 22.3792 48.7924L21.6142 52.5418C21.5745 52.7359 21.84 52.8325 21.9345 52.6584L23.7584 49.2945C24.0404 49.3856 24.3251 49.4708 24.6124 49.5498L24.2878 53.3629C24.271 53.5603 24.5459 53.6254 24.6195 53.4415L26.0412 49.8871C26.3314 49.9446 26.6238 49.9958 26.9184 50.0407L27.0387 53.8681C27.0449 54.0661 27.3255 54.0989 27.3772 53.9077L28.3774 50.2095C28.6717 50.2328 28.9677 50.2498 29.2654 50.2604L29.8296 54.0505C29.8588 54.2464 30.1413 54.2464 30.1705 54.0505L30.7347 50.2604C31.0324 50.2498 31.3284 50.2328 31.6227 50.2095L32.6229 53.9077C32.6746 54.0989 32.9552 54.0661 32.9614 53.8681L33.0817 50.0407C33.3763 49.9958 33.6687 49.9446 33.9589 49.8871L35.3806 53.4415C35.4542 53.6254 35.7291 53.5603 35.7123 53.3629L35.3877 49.5498C35.675 49.4708 35.9597 49.3856 36.2417 49.2945L38.0656 52.6584C38.1601 52.8325 38.4255 52.7359 38.3859 52.5418L37.6209 48.7924C37.8967 48.6804 38.1695 48.5625 38.4391 48.439L40.6416 51.5688C40.7556 51.7308 41.008 51.604 40.9462 51.4158L39.7505 47.7791C40.011 47.6359 40.268 47.4872 40.5213 47.3331L43.0736 50.1875C43.2056 50.3352 43.4417 50.18 43.3584 50.0002L41.7477 46.5249C41.9894 46.3527 42.2272 46.1754 42.4609 45.993L45.3288 48.5333C45.4771 48.6646 45.6935 48.483 45.59 48.3142L43.5859 45.0481C43.8059 44.8493 44.0215 44.6458 44.2326 44.4378L47.3768 46.6284C47.5393 46.7417 47.7332 46.5361 47.6107 46.3805L45.2411 43.3692C45.4366 43.1465 45.6273 42.9194 45.8131 42.6882L49.1897 44.4987C49.3643 44.5923 49.533 44.3657 49.3933 44.2253L46.6912 41.5106C46.8597 41.2666 47.0231 41.0188 47.181 40.7673L50.7432 42.1729C50.9274 42.2456 51.0687 42.0009 50.9136 41.8777L47.9164 39.4964C48.0555 39.2344 48.1891 38.9691 48.3169 38.7005L52.0161 39.6824C52.2075 39.7332 52.3194 39.4738 52.1511 39.3694L48.8989 37.353C49.0065 37.0766 49.1082 36.7974 49.2039 36.5153L52.9913 37.061C53.1873 37.0893 53.2683 36.8186 53.089 36.7345L49.6243 35.109C49.6987 34.8223 49.767 34.5332 49.829 34.2418L53.6555 34.3442C53.8535 34.3495 53.9026 34.0712 53.7147 34.0085L50.0823 32.7954C50.1227 32.5027 50.1568 32.208 50.1846 31.9114L53.9999 31.5686C54.1972 31.5508 54.2136 31.2688 54.0197 31.2283L50.2687 30.4446C50.2719 30.2968 50.2735 30.1486 50.2735 30C50.2735 29.8514 50.2719 29.7032 50.2687 29.5554L54.0197 28.7718C54.2136 28.7312 54.1972 28.4492 53.9999 28.4315L50.1846 28.0887C50.1568 27.7921 50.1227 27.4974 50.0823 27.2046L53.7147 25.9915C53.9026 25.9288 53.8535 25.6506 53.6555 25.6559L49.829 25.7582C49.767 25.4668 49.6987 25.1777 49.6243 24.8911L53.089 23.2655C53.2683 23.1814 53.1873 22.9108 52.9913 22.939L49.2039 23.4847C49.1082 23.2027 49.0065 22.9234 48.8989 22.6471L52.1511 20.6306C52.3194 20.5262 52.2075 20.2668 52.0161 20.3176L48.3169 21.2996C48.1891 21.031 48.0555 20.7656 47.9164 20.5037L50.9136 18.1224C51.0687 17.9992 50.9274 17.7545 50.7432 17.8272L47.181 19.2327C47.0231 18.9812 46.8597 18.7334 46.6912 18.4895L49.3933 15.7748C49.533 15.6344 49.3643 15.4078 49.1897 15.5014L45.8131 17.3119C45.6273 17.0806 45.4366 16.8536 45.2411 16.6309L47.6107 13.6196C47.7332 13.4639 47.5393 13.2584 47.3768 13.3716L44.2326 15.5623C44.0215 15.3542 43.8059 15.1507 43.5859 14.952L45.59 11.6858C45.6935 11.517 45.4771 11.3354 45.3288 11.4667L42.4609 14.007C42.2272 13.8247 41.9894 13.6473 41.7477 13.4752L43.3584 9.9998C43.4417 9.82009 43.2056 9.66483 43.0736 9.81249L40.5213 12.667C40.268 12.5129 40.011 12.3641 39.7505 12.221L40.9462 8.58422C41.008 8.39606 40.7556 8.26926 40.6416 8.43124L38.4391 11.5611C38.1695 11.4375 37.8967 11.3196 37.6209 11.2077L38.3859 7.45826C38.4255 7.26419 38.1601 7.16756 38.0656 7.34168L36.2417 10.7056C35.9597 10.6144 35.675 10.5293 35.3877 10.4503L35.7123 6.63714C35.7291 6.43978 35.4542 6.37462 35.3806 6.55853L33.9589 10.1129C33.6687 10.0555 33.3763 10.0042 33.0817 9.9593L32.9614 6.13196C32.9552 5.93398 32.6746 5.90118 32.6229 6.09239L31.6227 9.79057C31.3284 9.76727 31.0324 9.75025 30.7347 9.73965L30.1705 5.94955ZM17.3919 17.1551C18.8032 15.7796 21.0464 16.3204 22.0456 18.0191L27.9115 27.9919C28.5487 29.0752 28.5487 30.4186 27.9115 31.5019L21.8568 41.7956C20.848 43.5108 18.5745 44.0408 17.173 42.6281C13.944 39.3733 11.9532 34.9162 11.9532 30C11.9532 24.9737 14.0342 20.4273 17.3919 17.1551ZM32.7881 30.8234C31.5614 30.8234 30.4263 31.4726 29.8044 32.53L23.7188 42.8763C22.7081 44.5946 23.3542 46.8428 25.2751 47.3758C26.8509 47.8131 28.5128 48.0469 30.23 48.0469C38.7865 48.0469 45.9697 42.2411 47.9595 34.4015C48.445 32.4886 46.8392 30.8234 44.8657 30.8234H32.7881ZM44.7318 28.6703C46.7439 28.6703 48.3609 26.9409 47.7989 25.0089C45.6062 17.4696 38.5705 11.9532 30.23 11.9532C28.621 11.9532 27.0605 12.1585 25.5739 12.544C23.6256 13.0493 22.9547 15.3185 23.9752 17.0535L29.8044 26.9638C30.4263 28.0211 31.5614 28.6703 32.788 28.6703H44.7318ZM30.0111 30.9671C30.5613 30.9671 31.0072 30.5212 31.0072 29.971C31.0072 29.4209 30.5613 28.9749 30.0111 28.9749C29.461 28.9749 29.015 29.4209 29.015 29.971C29.015 30.5212 29.461 30.9671 30.0111 30.9671Z" fill="url(#paint1_linear_91_235)"/>
</g>
<defs>
<filter id="filter0_d_91_235" x="2.10993" y="5.80261" width="55.7801" height="55.8615" filterUnits="userSpaceOnUse" color-interpolation-filters="sRGB">
<feFlood flood-opacity="0" result="BackgroundImageFix"/>
<feColorMatrix in="SourceAlpha" type="matrix" values="0 0 0 0 0 0 0 0 0 0 0 0 0 0 0 0 0 0 127 0" result="hardAlpha"/>
<feOffset dy="3.73333"/>
<feGaussianBlur stdDeviation="1.86667"/>
<feColorMatrix type="matrix" values="0 0 0 0 0 0 0 0 0 0 0 0 0 0 0 0 0 0 0.45 0"/>
<feBlend mode="normal" in2="BackgroundImageFix" result="effect1_dropShadow_91_235"/>
<feBlend mode="normal" in="SourceGraphic" in2="effect1_dropShadow_91_235" result="shape"/>
</filter>
<linearGradient id="paint0_linear_91_235" x1="30" y1="15" x2="30" y2="44.9999" gradientUnits="userSpaceOnUse">
<stop stop-color="#B4B4B8"/>
<stop offset="1" stop-color="#B4B4B8"/>
</linearGradient>
<linearGradient id="paint1_linear_91_235" x1="30.0197" y1="6.15757" x2="30.2892" y2="54.2269" gradientUnits="userSpaceOnUse">
<stop offset="0.193294" stop-color="#D4D4D8"/>
<stop offset="0.830878" stop-color="#9D9DA1"/>
</linearGradient>
</defs>
</svg>
