<svg width="16" height="16" viewBox="0 0 16 16" fill="none" xmlns="http://www.w3.org/2000/svg">
<path fill-rule="evenodd" clip-rule="evenodd" d="M4.65476 11.0478C4.65476 11.0478 11.1914 17.0142 14.8753 15.1333C14.8753 15.1333 15.8934 14.2992 15.9921 13.4799C16.0907 12.6605 15.2448 12.1109 14.9179 11.9241C14.1353 11.475 13.3304 11.0565 12.5319 10.6303C12.2795 10.4953 12.0059 10.343 11.7078 10.4177C11.5353 10.4618 11.3575 10.5097 11.1999 10.5844C10.6377 10.8487 10.1767 11.0977 9.56768 11.3457C9.56768 11.3457 8.94606 11.1639 6.62709 9.05229C4.16332 6.80846 4.49628 5.97417 4.49628 5.97417C4.81676 5.56524 5.1085 5.13716 5.35125 4.6861C5.4556 4.49169 5.59933 4.30399 5.66002 4.09234C5.72178 3.87974 5.59507 3.72747 5.4886 3.54073C5.25223 3.12318 4.99989 2.7133 4.73797 2.3082C4.28653 1.60815 3.8255 0.878403 3.24949 0.253044C3.1888 0.187923 3.04719 -0.00744224 2.93113 0.000219123C1.65027 0.0777904 0.388572 1.22987 0.388572 1.22987C-1.59394 4.48978 4.65476 11.0478 4.65476 11.0478Z" fill="#34C759"/>
</svg>
