<svg width="21" height="21" viewBox="0 0 21 21" fill="none" xmlns="http://www.w3.org/2000/svg">
<path d="M19.9556 14.928L17.1646 12.1369C16.1678 11.1401 14.4732 11.5389 14.0745 12.8347C13.7754 13.7318 12.7786 14.2302 11.8815 14.0308C9.88789 13.5324 7.19651 10.9407 6.69811 8.84745C6.39907 7.95029 6.99715 6.95348 7.89428 6.65448C9.19012 6.25575 9.58885 4.56119 8.59204 3.56438L5.80098 0.773323C5.00354 0.075559 3.80737 0.075559 3.10961 0.773323L1.21568 2.66725C-0.678254 4.66087 1.41504 9.94394 6.10003 14.6289C10.785 19.3139 16.0681 21.5069 18.0617 19.5133L19.9556 17.6193C20.6534 16.8219 20.6534 15.6257 19.9556 14.928Z" fill="#007AFF"/>
</svg>
