<svg width="28" height="29" viewBox="0 0 28 29" fill="none" xmlns="http://www.w3.org/2000/svg">
<path d="M14 27.2622C20.8115 27.2622 26.4512 21.6226 26.4512 14.811C26.4512 8.01172 20.7993 2.35986 13.9878 2.35986C7.18848 2.35986 1.54883 8.01172 1.54883 14.811C1.54883 21.6226 7.20068 27.2622 14 27.2622ZM14 18.9736C10.3257 18.9736 7.50586 20.2798 6.26074 21.7446C4.625 19.9136 3.63623 17.4844 3.63623 14.811C3.63623 9.06152 8.22607 4.43506 13.9878 4.43506C19.7495 4.43506 24.3638 9.06152 24.376 14.811C24.3882 17.4966 23.3872 19.9258 21.7393 21.7568C20.5063 20.292 17.6743 18.9736 14 18.9736ZM14 16.8984C16.3438 16.9229 18.187 14.9209 18.187 12.2964C18.187 9.83057 16.3438 7.77979 14 7.77979C11.6562 7.77979 9.80078 9.83057 9.81299 12.2964C9.8252 14.9209 11.6562 16.874 14 16.8984Z" fill="#828282"/>
</svg>
