<svg width="24" height="23" viewBox="0 0 24 23" fill="none" xmlns="http://www.w3.org/2000/svg">
<path d="M11.9942 23C18.5713 23 24 17.795 24 11.5C24 5.20503 18.5597 0 11.9826 0C5.41711 0 0 5.20503 0 11.5C0 17.795 5.42871 23 11.9942 23ZM11.9942 20.7089C6.66989 20.7089 2.41276 16.6049 2.41276 11.5C2.41276 6.39507 6.66989 2.30222 11.9826 2.30222C17.3069 2.30222 21.5872 6.39507 21.5988 11.5C21.6104 16.6049 17.3185 20.7089 11.9942 20.7089ZM8.61866 16.5938C9.07105 16.5938 9.31464 16.4492 9.66264 15.9599L11.9246 12.8346H11.9826L14.233 15.9599C14.5694 16.4381 14.813 16.5938 15.2653 16.5938C15.8801 16.5938 16.3209 16.2045 16.3209 15.6596C16.3209 15.3927 16.2397 15.1813 16.0425 14.9367L13.3398 11.4221L16.0657 7.89652C16.2629 7.64072 16.3441 7.4294 16.3441 7.1736C16.3441 6.65087 15.9033 6.26161 15.3117 6.26161C14.871 6.26161 14.6042 6.41731 14.3026 6.87331L12.1218 10.0208H12.0522L9.81344 6.86219C9.48864 6.40619 9.23345 6.26161 8.76945 6.26161C8.17786 6.26161 7.71387 6.67311 7.71387 7.20696C7.71387 7.49613 7.79507 7.69633 8.01547 7.97437L10.6138 11.3777L7.87627 14.9811C7.69067 15.2369 7.60947 15.426 7.60947 15.6929C7.60947 16.2045 8.03867 16.5938 8.61866 16.5938Z" fill="#007AFF"/>
</svg>
