<svg width="25" height="18" viewBox="0 0 25 18" fill="none" xmlns="http://www.w3.org/2000/svg">
<path d="M24.9999 1.40609V16.9276C24.9999 17.1597 24.9999 17.5245 24.9999 17.75L16.3931 9.69225L24.9999 0.75C24.9999 0.953434 24.9999 1.1719 24.9999 1.40609Z" fill="#007AFF"/>
<path d="M0 16.9225V1.40102C0 1.16892 9.65e-05 0.93136 4.22134e-05 0.763306L8.59468 9.69229L1.72884e-05 17.7456C0.000358962 17.5333 0 17.1546 0 16.9225Z" fill="#007AFF"/>
<path d="M13.331 11.2261C12.9377 11.6347 12.2837 11.6347 11.8903 11.2261L1.81152 0.75885H23.4099L13.331 11.2261Z" fill="#007AFF"/>
<path d="M9.25988 10.6475L11.9069 13.149C12.2992 13.5197 12.9149 13.5122 13.2981 13.1321L15.8382 10.6121L23.4175 17.7421H1.81152L9.25988 10.6475Z" fill="#007AFF"/>
</svg>
