<svg width="25" height="19" viewBox="0 0 25 19" fill="none" xmlns="http://www.w3.org/2000/svg">
<path d="M24.4558 0.77013C24.3349 0.723338 24.2186 0.699844 24.1069 0.699844C23.8558 0.699844 23.6467 0.789093 23.4792 0.9671L17.8569 6.62036V4.30007C17.8569 3.1843 17.464 2.23053 16.6781 1.43827C15.8921 0.646107 14.946 0.25 13.839 0.25H4.01776C2.91109 0.25 1.9647 0.646107 1.17869 1.43827C0.392961 2.23053 0 3.1843 0 4.30007V14.2001C0 15.3157 0.392961 16.2695 1.17874 17.0617C1.96475 17.8539 2.91114 18.25 4.0178 18.25H13.8391C14.946 18.25 15.8922 17.8539 16.6782 17.0617C17.4641 16.2695 17.857 15.3158 17.857 14.2001V11.8656L23.4793 17.5329C23.6468 17.7108 23.8559 17.8 24.107 17.8C24.2187 17.8 24.335 17.7766 24.4559 17.7299C24.8188 17.5704 25 17.294 25 16.9002V1.60002C24.9999 1.20608 24.8186 0.929568 24.4558 0.77013Z" fill="#007AFF"/>
</svg>
