<svg width="29" height="27" viewBox="0 0 29 27" fill="none" xmlns="http://www.w3.org/2000/svg">
<path d="M6.13818 26.4331C6.63867 26.8237 7.27344 26.6895 8.03027 26.1401L14.4878 21.3916L20.9575 26.1401C21.7144 26.6895 22.3369 26.8237 22.8496 26.4331C23.3501 26.0547 23.46 25.4321 23.1548 24.5532L20.6035 16.9482L27.1221 12.2729C27.8789 11.7358 28.1841 11.1621 27.9888 10.564C27.7935 9.96582 27.2197 9.67285 26.2798 9.68506L18.2842 9.74609L15.855 2.10449C15.562 1.21338 15.1226 0.749512 14.4878 0.749512C13.8652 0.749512 13.4258 1.21338 13.1328 2.10449L10.7036 9.74609L2.70801 9.68506C1.76807 9.67285 1.19434 9.96582 0.999023 10.564C0.791504 11.1621 1.10889 11.7358 1.86572 12.2729L8.38428 16.9482L5.83301 24.5532C5.52783 25.4321 5.6377 26.0547 6.13818 26.4331Z" fill="#757575"/>
</svg>
