<svg width="25" height="24" viewBox="0 0 25 24" fill="none" xmlns="http://www.w3.org/2000/svg">
<path d="M12.5 7.0625C14.4165 7.0625 16.0156 5.47559 16.0156 3.54688C16.0156 1.61816 14.4165 0.03125 12.5 0.043457C10.5713 0.0556641 8.97217 1.61816 8.97217 3.54688C8.97217 5.47559 10.5713 7.0625 12.5 7.0625ZM21.3501 7.0625C23.2788 7.0625 24.8535 5.47559 24.8535 3.54688C24.8535 1.61816 23.2788 0.03125 21.3501 0.043457C19.4214 0.0556641 17.8467 1.61816 17.8467 3.54688C17.8467 5.47559 19.4214 7.0625 21.3501 7.0625ZM3.6377 7.05029C5.56641 7.05029 7.14111 5.47559 7.14111 3.55908C7.14111 1.64258 5.56641 0.043457 3.6377 0.043457C1.70898 0.043457 0.134277 1.64258 0.134277 3.55908C0.134277 5.47559 1.70898 7.05029 3.6377 7.05029ZM12.5 15.3389C14.4165 15.3389 16.0156 13.752 16.0156 11.8232C16.0156 9.90674 14.4165 8.30762 12.5 8.31982C10.5713 8.33203 8.97217 9.90674 8.97217 11.8232C8.97217 13.752 10.5713 15.3389 12.5 15.3389ZM3.6377 15.3389C5.56641 15.3389 7.14111 13.752 7.14111 11.8232C7.14111 9.90674 5.56641 8.30762 3.6377 8.31982C1.70898 8.33203 0.134277 9.90674 0.134277 11.8232C0.134277 13.752 1.70898 15.3389 3.6377 15.3389ZM21.3501 15.3389C23.2788 15.3389 24.8535 13.752 24.8535 11.8232C24.8535 9.90674 23.2788 8.30762 21.3501 8.31982C19.4214 8.33203 17.8467 9.90674 17.8467 11.8232C17.8467 13.752 19.4214 15.3389 21.3501 15.3389ZM3.6377 23.6152C5.56641 23.6152 7.14111 22.0283 7.14111 20.0996C7.14111 18.1831 5.56641 16.5962 3.6377 16.5962C1.70898 16.5962 0.134277 18.1831 0.134277 20.0996C0.134277 22.0283 1.70898 23.6152 3.6377 23.6152ZM12.5 23.6152C14.4165 23.6152 16.0156 22.0283 16.0156 20.0996C16.0156 18.1831 14.4165 16.5962 12.5 16.5962C10.5713 16.5962 8.97217 18.1831 8.97217 20.0996C8.97217 22.0283 10.5713 23.6152 12.5 23.6152ZM21.3501 23.6152C23.2788 23.6152 24.8535 22.0283 24.8535 20.0996C24.8535 18.1831 23.2788 16.5962 21.3501 16.5962C19.4214 16.5962 17.8467 18.1831 17.8467 20.0996C17.8467 22.0283 19.4214 23.6152 21.3501 23.6152Z" fill="#9D9D9D"/>
</svg>
