<svg width="28" height="28" viewBox="0 0 28 28" fill="none" xmlns="http://www.w3.org/2000/svg">
<path d="M16.4944 23C22.7975 23 28 18.2476 28 12.5C28 6.75242 22.7864 2 16.4833 2C10.1914 2 5 6.75242 5 12.5C5 18.2476 10.2025 23 16.4944 23ZM13.5597 10.4284C13.5041 10.0426 13.3151 9.69729 13.0261 9.43327C13.971 7.26015 15.4606 5.30029 17.3949 3.68569C17.5172 3.69584 17.6506 3.71615 17.784 3.72631C16.4166 5.90957 15.594 8.33656 15.3828 10.8549C14.7603 10.7534 14.1489 10.6112 13.5597 10.4284ZM8.49058 7.55464C10.0135 5.52369 12.4258 4.08172 15.1938 3.72631C13.6486 5.26983 12.4258 7.03675 11.6032 8.956C11.2808 8.97631 10.9918 9.0677 10.7472 9.20986C9.93572 8.74275 9.1798 8.18424 8.49058 7.55464ZM20.0517 7.61557C20.0406 6.54932 20.1851 5.48308 20.5075 4.45745C22.564 5.33075 24.2537 6.84381 25.232 8.71228C24.1537 9.46373 22.9531 10.0324 21.6858 10.4284C21.3523 10.0629 20.8632 9.8293 20.3185 9.81915C20.1518 9.09816 20.0628 8.36702 20.0517 7.61557ZM18.5288 7.61557C18.5399 8.55996 18.6622 9.4942 18.8956 10.3878C18.7289 10.5604 18.5955 10.7737 18.5288 10.9971C18.2397 11.0174 17.9618 11.0276 17.6728 11.0276C17.4171 11.0276 17.1503 11.0276 16.8946 11.0073C17.0725 8.84429 17.7284 6.75242 18.8289 4.87379C18.6177 5.75725 18.5176 6.68133 18.5288 7.61557ZM6.81199 12.5C6.81199 11.19 7.12325 9.95116 7.7013 8.82398C8.37941 9.41296 9.12421 9.94101 9.91348 10.3878C9.90237 10.4691 9.89125 10.5401 9.89125 10.6214C9.89125 11.1697 10.1803 11.6673 10.6361 11.972C10.4248 12.957 10.3137 13.9724 10.3026 14.9879C9.06863 14.4396 7.9014 13.7389 6.8231 12.9062C6.81199 12.7742 6.81199 12.632 6.81199 12.5ZM26.188 12.5C26.188 13.3022 26.0657 14.0841 25.8434 14.8254C25.2209 15.1301 24.5872 15.3941 23.9425 15.6175C22.942 14.7747 22.1194 13.7998 21.4857 12.7234C21.7748 12.4797 21.986 12.1547 22.0638 11.779C23.3978 11.383 24.6539 10.8143 25.8101 10.073C26.0546 10.8448 26.188 11.6572 26.188 12.5ZM11.8255 15.5972C11.7922 14.47 11.8922 13.353 12.1145 12.2664C12.4925 12.1954 12.8371 12.0126 13.0928 11.7587C13.8154 11.972 14.5602 12.1446 15.3272 12.2563C15.3383 13.5053 15.494 14.734 15.783 15.9323C15.594 16.0745 15.4384 16.2471 15.3272 16.44C14.1377 16.2776 12.9594 15.9932 11.8255 15.5972ZM17.6728 12.4188C18.0285 12.4188 18.3842 12.4086 18.74 12.3781C19.0179 12.7742 19.4737 13.0484 19.9961 13.1296C20.6075 14.2162 21.3857 15.2113 22.3195 16.0948C21.1189 16.3893 19.885 16.5619 18.651 16.6127C18.4176 16.0745 17.8951 15.6784 17.2726 15.587C17.0169 14.5513 16.8724 13.485 16.8613 12.3985C17.1281 12.4188 17.406 12.4188 17.6728 12.4188ZM7.18995 14.927C8.17931 15.5667 9.2465 16.1049 10.3359 16.5517C10.4026 17.6078 10.5805 18.6538 10.8806 19.6794C9.12421 18.5319 7.80135 16.8564 7.18995 14.927ZM16.4944 21.3549C15.2049 21.3549 13.971 21.1112 12.8371 20.6847C12.3591 19.5372 12.0478 18.339 11.9145 17.1103C12.9928 17.4454 14.1044 17.6891 15.216 17.8312C15.4717 18.4507 16.1054 18.8873 16.8613 18.9178C17.2281 19.7099 17.6728 20.4816 18.1841 21.2128C17.6394 21.3042 17.0725 21.3549 16.4944 21.3549ZM18.2842 18.3999C18.4065 18.2882 18.5065 18.146 18.5843 18.0039C20.2963 17.9429 21.986 17.6789 23.6312 17.1915C23.8647 17.3641 24.0981 17.5164 24.3316 17.6688C23.1866 19.1107 21.5858 20.2278 19.7293 20.837C19.1624 20.0653 18.6844 19.2529 18.2842 18.3999Z" fill="#007AFF"/>
</svg>
