<svg width="11" height="19" viewBox="0 0 11 19" fill="none" xmlns="http://www.w3.org/2000/svg">
<path d="M8.18407 8.67665C7.42674 8.2863 6.62157 7.98889 5.82438 7.68033C5.36201 7.50189 4.91956 7.2937 4.52894 7.00373C3.75965 6.43122 3.90713 5.50182 4.80796 5.13378C5.06306 5.02968 5.33012 4.99623 5.60116 4.98136C6.64549 4.92931 7.63799 5.10775 8.58267 5.53156C9.05301 5.74346 9.20847 5.67655 9.36791 5.21928C9.53532 4.73599 9.67483 4.24527 9.83028 3.75827C9.93391 3.43112 9.80636 3.2155 9.47553 3.07795C8.86966 2.82887 8.24785 2.65042 7.59415 2.55377C6.74115 2.43108 6.74115 2.42737 6.73717 1.62808C6.73318 0.501652 6.73318 0.501652 5.52145 0.501652C5.34606 0.501652 5.17068 0.497935 4.9953 0.501652C4.42929 0.516523 4.33363 0.609463 4.31768 1.14108C4.30971 1.379 4.31768 1.61693 4.3137 1.85857C4.30971 2.56492 4.30572 2.55377 3.58028 2.79913C1.82645 3.39394 0.742268 4.50922 0.626675 6.29367C0.52304 7.87364 1.40792 8.9406 2.79903 9.71757C3.65601 10.1971 4.60467 10.4797 5.51347 10.8552C5.86822 11.0001 6.20703 11.1674 6.50199 11.3979C7.37492 12.0708 7.21548 13.1898 6.17913 13.6136C5.62508 13.8404 5.03914 13.8962 4.43726 13.8255C3.50853 13.7177 2.61966 13.4909 1.78261 13.0857C1.29233 12.8478 1.14884 12.911 0.981426 13.4054C0.837931 13.833 0.71038 14.2642 0.582829 14.6954C0.411432 15.2754 0.475208 15.4129 1.06912 15.6843C1.82645 16.0263 2.6356 16.2011 3.4607 16.3237C4.10643 16.4204 4.12636 16.4464 4.13433 17.071C4.13831 17.3535 4.13831 17.6398 4.1423 17.9223C4.14629 18.2792 4.32964 18.4874 4.72425 18.4948C5.17068 18.5023 5.62109 18.5023 6.06752 18.4911C6.43423 18.4837 6.62157 18.2978 6.62157 17.952C6.62157 17.5654 6.6415 17.1751 6.62556 16.7884C6.60563 16.3944 6.78898 16.1936 7.19555 16.0895C8.13226 15.8516 8.92945 15.3832 9.54329 14.6843C11.2493 12.7511 10.5996 9.92204 8.18407 8.67665Z" fill="#007AFF"/>
</svg>
