<svg width="26" height="26" viewBox="0 0 26 26" fill="none" xmlns="http://www.w3.org/2000/svg">
<path d="M13 25.2622C19.8115 25.2622 25.4512 19.6226 25.4512 12.811C25.4512 6.01172 19.7993 0.359863 12.9878 0.359863C6.18848 0.359863 0.548828 6.01172 0.548828 12.811C0.548828 19.6226 6.20068 25.2622 13 25.2622ZM6.61572 14.1294C6.12744 14.1294 5.76123 13.7632 5.76123 13.2749C5.76123 12.7988 6.12744 12.4326 6.61572 12.4326H12.1455V5.04736C12.1455 4.57129 12.5117 4.20508 12.9878 4.20508C13.4639 4.20508 13.8423 4.57129 13.8423 5.04736V13.2749C13.8423 13.7632 13.4639 14.1294 12.9878 14.1294H6.61572Z" fill="#757575"/>
</svg>
