<svg width="39" height="18" viewBox="0 0 39 18" fill="none" xmlns="http://www.w3.org/2000/svg">
<path fill-rule="evenodd" clip-rule="evenodd" d="M29.9008 15.0587C26.7039 15.0587 24.1032 12.4164 24.1032 9.16829C24.1032 5.9202 26.7039 3.27783 29.9008 3.27783C33.0977 3.27783 35.6984 5.9202 35.6984 9.16829C35.6984 12.4164 33.0977 15.0587 29.9008 15.0587ZM3.30162 9.16829C3.30162 5.9202 5.90232 3.27783 9.09919 3.27783C12.2961 3.27783 14.8968 5.9202 14.8968 9.16829C14.8968 12.4164 12.2961 15.0587 9.09919 15.0587C5.90232 15.0587 3.30162 12.4164 3.30162 9.16829ZM29.9008 0.939331C25.4356 0.939331 21.8016 4.63154 21.8016 9.16829C21.8016 11.4773 22.7459 13.5628 24.2583 15.0587H14.7427C16.2541 13.5628 17.1984 11.4773 17.1984 9.16829C17.1984 4.63154 13.5644 0.939331 9.09919 0.939331C4.63398 0.939331 1 4.63154 1 9.16829C1 13.705 4.63398 17.3972 9.09919 17.3972H29.9008C34.366 17.3972 38 13.705 38 9.16829C38 4.63154 34.366 0.939331 29.9008 0.939331Z" fill="#9D9D9D"/>
<path d="M24.2583 15.0587V15.3087H24.8665L24.4341 14.881L24.2583 15.0587ZM14.7427 15.0587L14.5668 14.8811L14.1348 15.3087H14.7427V15.0587ZM29.9008 14.8087C26.8458 14.8087 24.3532 12.2821 24.3532 9.16829H23.8532C23.8532 12.5507 26.5621 15.3087 29.9008 15.3087V14.8087ZM24.3532 9.16829C24.3532 6.05451 26.8458 3.52783 29.9008 3.52783V3.02783C26.5621 3.02783 23.8532 5.78589 23.8532 9.16829H24.3532ZM29.9008 3.52783C32.9559 3.52783 35.4484 6.05451 35.4484 9.16829H35.9484C35.9484 5.78589 33.2395 3.02783 29.9008 3.02783V3.52783ZM35.4484 9.16829C35.4484 12.2821 32.9559 14.8087 29.9008 14.8087V15.3087C33.2395 15.3087 35.9484 12.5507 35.9484 9.16829H35.4484ZM3.55162 9.16829C3.55162 6.05451 6.04413 3.52783 9.09919 3.52783V3.02783C5.76052 3.02783 3.05162 5.78589 3.05162 9.16829H3.55162ZM9.09919 3.52783C12.1543 3.52783 14.6468 6.05451 14.6468 9.16829H15.1468C15.1468 5.78589 12.4379 3.02783 9.09919 3.02783V3.52783ZM14.6468 9.16829C14.6468 12.2821 12.1543 14.8087 9.09919 14.8087V15.3087C12.4379 15.3087 15.1468 12.5507 15.1468 9.16829H14.6468ZM9.09919 14.8087C6.04413 14.8087 3.55162 12.2821 3.55162 9.16829H3.05162C3.05162 12.5507 5.76052 15.3087 9.09919 15.3087V14.8087ZM29.9008 0.689331C25.2938 0.689331 21.5516 4.49723 21.5516 9.16829H22.0516C22.0516 4.76585 25.5774 1.18933 29.9008 1.18933V0.689331ZM21.5516 9.16829C21.5516 11.5468 22.5246 13.6955 24.0825 15.2365L24.4341 14.881C22.9672 13.43 22.0516 11.4078 22.0516 9.16829H21.5516ZM24.2583 14.8087H14.7427V15.3087H24.2583V14.8087ZM14.9186 15.2364C16.4754 13.6955 17.4484 11.5468 17.4484 9.16829H16.9484C16.9484 11.4078 16.0328 13.4301 14.5668 14.8811L14.9186 15.2364ZM17.4484 9.16829C17.4484 4.49723 13.7062 0.689331 9.09919 0.689331V1.18933C13.4226 1.18933 16.9484 4.76585 16.9484 9.16829H17.4484ZM9.09919 0.689331C4.49218 0.689331 0.75 4.49723 0.75 9.16829H1.25C1.25 4.76585 4.77578 1.18933 9.09919 1.18933V0.689331ZM0.75 9.16829C0.75 13.8393 4.49218 17.6472 9.09919 17.6472V17.1472C4.77578 17.1472 1.25 13.5707 1.25 9.16829H0.75ZM9.09919 17.6472H29.9008V17.1472H9.09919V17.6472ZM29.9008 17.6472C34.5078 17.6472 38.25 13.8393 38.25 9.16829H37.75C37.75 13.5707 34.2242 17.1472 29.9008 17.1472V17.6472ZM38.25 9.16829C38.25 4.49723 34.5078 0.689331 29.9008 0.689331V1.18933C34.2242 1.18933 37.75 4.76585 37.75 9.16829H38.25Z" fill="#9D9D9D"/>
</svg>
