<svg width="18" height="13" viewBox="0 0 18 13" fill="none" xmlns="http://www.w3.org/2000/svg">
<path fill-rule="evenodd" clip-rule="evenodd" d="M9.27125 3.02059C11.7584 3.02069 14.1504 3.9257 15.9529 5.54856C16.0886 5.67385 16.3056 5.67227 16.4393 5.54501L17.7367 4.30494C17.8044 4.2404 17.8422 4.15297 17.8416 4.06201C17.841 3.97104 17.8022 3.88404 17.7338 3.82025C13.0027 -0.47345 5.53902 -0.47345 0.808007 3.82025C0.739475 3.88399 0.700591 3.97097 0.699959 4.06194C0.699327 4.1529 0.736999 4.24035 0.80464 4.30494L2.1025 5.54501C2.2361 5.67246 2.45323 5.67404 2.58888 5.54856C4.39162 3.92559 6.7839 3.02058 9.27125 3.02059ZM9.26947 7.16271C10.6268 7.16262 11.9357 7.66489 12.9418 8.5719C13.0779 8.70063 13.2922 8.69784 13.4249 8.56561L14.7122 7.27073C14.78 7.20282 14.8176 7.11068 14.8166 7.01493C14.8156 6.91919 14.7761 6.82783 14.707 6.76129C11.6431 3.92398 6.8984 3.92398 3.83457 6.76129C3.76536 6.82783 3.72588 6.91923 3.72497 7.01501C3.72406 7.11078 3.7618 7.20291 3.82974 7.27073L5.11665 8.56561C5.2493 8.69784 5.46367 8.70063 5.59975 8.5719C6.6052 7.66549 7.91305 7.16327 9.26947 7.16271ZM11.7915 9.90452C11.7935 10.0079 11.7564 10.1076 11.6891 10.1801L9.51245 12.5893C9.44864 12.6601 9.36165 12.7 9.27088 12.7C9.18011 12.7 9.09312 12.6601 9.02931 12.5893L6.85228 10.1801C6.78503 10.1076 6.74803 10.0078 6.75003 9.90444C6.75202 9.80104 6.79283 9.70312 6.86282 9.63381C8.25292 8.34425 10.2888 8.34425 11.6789 9.63381C11.7489 9.70318 11.7896 9.80112 11.7915 9.90452Z" fill="white"/>
</svg>
