<svg width="1920" height="1080" viewBox="0 0 1920 1080" fill="none" xmlns="http://www.w3.org/2000/svg">
<g clip-path="url(#clip0_54_331)">
<rect width="1920" height="1080" fill="black"/>
<g filter="url(#filter0_f_54_331)">
<path d="M835.253 507.475C475.302 307.594 111.866 -70.7114 -34.747 -88.0257C-297.247 -119.026 -258.859 598.176 18.753 854.474C279.253 1094.97 2087.48 1341.18 1643.75 854.474C1407.68 595.536 1141.59 677.583 835.253 507.475Z" fill="#280075"/>
</g>
<g filter="url(#filter1_f_54_331)">
<path d="M651.253 676.475C291.302 476.594 -72.1337 98.2886 -218.747 80.9743C-481.247 49.9744 -442.859 767.176 -165.247 1023.47C95.2532 1263.97 1903.48 1510.18 1459.75 1023.47C1223.68 764.536 957.589 846.583 651.253 676.475Z" fill="#CF00A3"/>
</g>
<g filter="url(#filter2_f_54_331)">
<path d="M791.46 1041.48C871.282 956.3 386.983 401.445 78.2206 195.415C-230.542 -10.6158 -206.348 474.593 53.5939 721.427C269.95 926.873 711.639 1126.67 791.46 1041.48Z" fill="#FF8993"/>
<path d="M791.46 1041.48C871.282 956.3 386.983 401.445 78.2206 195.415C-230.542 -10.6158 -206.348 474.593 53.5939 721.427C269.95 926.873 711.639 1126.67 791.46 1041.48Z" stroke="#FF1D74" stroke-width="40"/>
</g>
</g>
<defs>
<filter id="filter0_f_54_331" x="-462" y="-339" width="2425.51" height="1723.59" filterUnits="userSpaceOnUse" color-interpolation-filters="sRGB">
<feFlood flood-opacity="0" result="BackgroundImageFix"/>
<feBlend mode="normal" in="SourceGraphic" in2="BackgroundImageFix" result="shape"/>
<feGaussianBlur stdDeviation="125" result="effect1_foregroundBlur_54_331"/>
</filter>
<filter id="filter1_f_54_331" x="-696" y="-220" width="2525.51" height="1823.59" filterUnits="userSpaceOnUse" color-interpolation-filters="sRGB">
<feFlood flood-opacity="0" result="BackgroundImageFix"/>
<feBlend mode="normal" in="SourceGraphic" in2="BackgroundImageFix" result="shape"/>
<feGaussianBlur stdDeviation="150" result="effect1_foregroundBlur_54_331"/>
</filter>
<filter id="filter2_f_54_331" x="-317.357" y="-24.3472" width="1287.56" height="1255.98" filterUnits="userSpaceOnUse" color-interpolation-filters="sRGB">
<feFlood flood-opacity="0" result="BackgroundImageFix"/>
<feBlend mode="normal" in="SourceGraphic" in2="BackgroundImageFix" result="shape"/>
<feGaussianBlur stdDeviation="75" result="effect1_foregroundBlur_54_331"/>
</filter>
<clipPath id="clip0_54_331">
<rect width="1920" height="1080" fill="white"/>
</clipPath>
</defs>
</svg>
